<svg width="19" height="19" viewBox="0 0 19 19" fill="none" xmlns="http://www.w3.org/2000/svg">
<path d="M0.59375 11.7578C0.751222 11.7578 0.902245 11.8204 1.01359 11.9317C1.12494 12.0431 1.1875 12.1941 1.1875 12.3516V15.3203C1.1875 15.6353 1.31261 15.9373 1.53531 16.16C1.75801 16.3827 2.06006 16.5078 2.375 16.5078H16.625C16.9399 16.5078 17.242 16.3827 17.4647 16.16C17.6874 15.9373 17.8125 15.6353 17.8125 15.3203V12.3516C17.8125 12.1941 17.8751 12.0431 17.9864 11.9317C18.0978 11.8204 18.2488 11.7578 18.4062 11.7578C18.5637 11.7578 18.7147 11.8204 18.8261 11.9317C18.9374 12.0431 19 12.1941 19 12.3516V15.3203C19 15.9502 18.7498 16.5543 18.3044 16.9997C17.859 17.4451 17.2549 17.6953 16.625 17.6953H2.375C1.74511 17.6953 1.14102 17.4451 0.695621 16.9997C0.250223 16.5543 0 15.9502 0 15.3203V12.3516C0 12.1941 0.0625556 12.0431 0.173905 11.9317C0.285255 11.8204 0.436278 11.7578 0.59375 11.7578V11.7578Z" fill="black"/>
<path d="M9.0794 14.0766C9.13455 14.1319 9.20007 14.1758 9.27221 14.2057C9.34434 14.2357 9.42168 14.2511 9.49977 14.2511C9.57787 14.2511 9.6552 14.2357 9.72734 14.2057C9.79947 14.1758 9.86499 14.1319 9.92015 14.0766L13.4826 10.5141C13.5941 10.4026 13.6568 10.2514 13.6568 10.0938C13.6568 9.93608 13.5941 9.78487 13.4826 9.67337C13.3712 9.56188 13.2199 9.49925 13.0623 9.49925C12.9046 9.49925 12.7534 9.56188 12.6419 9.67337L10.0935 12.2229V1.78125C10.0935 1.62378 10.031 1.47276 9.91962 1.36141C9.80827 1.25006 9.65725 1.1875 9.49977 1.1875C9.3423 1.1875 9.19128 1.25006 9.07993 1.36141C8.96858 1.47276 8.90602 1.62378 8.90602 1.78125V12.2229L6.35765 9.67337C6.24616 9.56188 6.09494 9.49925 5.93727 9.49925C5.7796 9.49925 5.62839 9.56188 5.5169 9.67337C5.40541 9.78487 5.34277 9.93608 5.34277 10.0938C5.34277 10.2514 5.40541 10.4026 5.5169 10.5141L9.0794 14.0766V14.0766Z" fill="black"/>
</svg>
