<svg width="117" height="58" viewBox="0 0 117 58" fill="none" xmlns="http://www.w3.org/2000/svg">
<g clip-path="url(#clip0_220_362)">
<path d="M40.7862 38.5198C40.7862 40.0188 39.5562 41.2398 38.046 41.2398H2.74019C1.23004 41.2398 0 40.0249 0 38.5198V2.77845C0 1.27941 1.23004 0.0644531 2.74019 0.0644531H38.046C39.5562 0.0644531 40.7862 1.27941 40.7862 2.77845V38.5198Z" fill="#C10606"/>
<path d="M38.8863 18.1009C38.8497 17.5871 38.2469 17.3816 37.0778 17.5024L36.4871 17.5448C36.5114 16.5353 36.2435 15.2357 35.6833 13.646C35.0683 11.9052 34.4289 10.8897 33.7652 10.6117C33.3815 10.4424 33.0344 10.3759 32.7178 10.3941C32.2246 10.4303 32.0114 10.8535 32.0723 11.6634C32.1211 12.3465 32.1211 12.963 32.0845 13.5372C32.0419 13.4949 31.9993 13.4707 31.9445 13.4768C31.9688 13.4768 31.64 13.6944 30.958 14.1296C30.2821 14.5708 29.7888 14.8005 29.4966 14.8187C29.3504 14.8308 29.1799 14.8126 28.9729 14.7582C28.8633 13.5312 28.3335 12.9509 27.3714 13.0234C26.251 13.102 25.0453 13.8213 23.7665 15.1874C22.8105 16.227 22.232 17.2667 22.0067 18.3003C21.6292 18.5482 21.0933 18.9894 20.3991 19.6241C19.711 20.295 19.0108 20.9599 18.2922 21.6309C19.9303 18.7174 20.6792 16.3842 20.5514 14.6313C20.4539 13.2713 19.912 12.6245 18.9377 12.697C17.7503 12.7817 16.8978 13.6339 16.3802 15.2357C15.7652 15.6226 15.3146 15.8402 15.0344 15.8583C14.8883 15.8644 14.7178 15.8462 14.5108 15.7979C14.3951 14.5708 13.8653 13.9906 12.9093 14.0571C11.7828 14.1356 10.5832 14.8549 9.30441 16.221C8.24487 17.3755 7.64202 18.524 7.4837 19.6724C7.25231 20.0472 6.93567 20.5852 6.52159 21.3045C5.65691 22.7975 4.96882 23.5651 4.45732 23.6014C3.98844 23.6377 3.66571 23.0211 3.47085 21.7638L3.45258 21.5221C5.40116 16.8799 6.67382 13.773 7.27667 12.1953C9.10955 7.33553 9.91334 4.19237 9.68803 2.77191C9.5906 2.12514 9.27396 1.82291 8.73201 1.86523C7.89778 1.92567 7.10008 2.40923 6.33282 3.30987C5.30982 4.4946 4.28073 7.46247 3.23336 12.2195C2.19209 16.9766 1.82673 20.3192 2.13729 22.2535C2.37477 23.8009 2.95326 24.5443 3.88492 24.4778C4.56692 24.4295 5.48641 23.7585 6.6312 22.4771C7.01483 22.054 7.3132 21.6611 7.55677 21.2863C7.70292 21.8243 7.96476 22.2655 8.36056 22.5919C8.9086 23.0392 9.52971 23.2387 10.2117 23.1964C11.3382 23.1118 12.2882 22.5073 13.0676 21.377C13.78 20.3494 14.2367 19.068 14.4438 17.5206C14.87 17.3513 15.3998 17.0854 16.0026 16.7408C15.82 17.853 15.7713 19.0861 15.8748 20.4461C15.9357 21.2863 16.0392 22.1628 16.1731 23.0634C14.6569 24.502 13.0615 26.6055 11.393 29.3618C9.39575 32.6621 8.46408 35.2311 8.59805 37.0807C8.71983 38.7671 9.54189 39.5529 11.0581 39.4441C12.9215 39.3111 14.5351 37.1895 15.9052 33.0913C16.2036 32.1544 16.9708 28.9931 18.2009 23.6014C19.1569 22.5557 19.8754 21.7276 20.3443 21.105C20.9715 20.567 21.483 20.1318 21.9215 19.7631C22.0128 20.5429 22.3051 21.1473 22.8166 21.5644C23.3646 22.0117 23.9857 22.2111 24.6677 22.1628C25.7882 22.0842 26.7442 21.4798 27.5236 20.3494C28.2361 19.3219 28.6928 18.0344 28.9059 16.487C29.4052 16.2875 30.0385 15.9671 30.7875 15.5259C31.3173 15.1874 31.7009 14.8973 31.9384 14.6494C31.7801 15.4594 31.5121 16.1364 31.1346 16.6683C31.0676 16.7711 31.025 16.8557 31.0067 16.9222C31.0189 17.0793 31.1955 17.1519 31.5365 17.1277C31.9749 17.0975 32.4194 16.5293 32.8518 15.4231C33.1319 14.589 33.4181 13.7548 33.7043 12.9207C34.5933 14.6132 35.0561 16.0941 35.0987 17.3574L35.1231 17.7503C33.887 17.9981 32.8031 18.4031 31.8531 18.9592C30.4404 19.8115 29.7767 20.8209 29.8619 21.9814C29.8985 22.5013 30.1359 22.8942 30.5744 23.1541C30.9093 23.3596 31.2807 23.4442 31.7009 23.42C31.9445 23.4019 32.188 23.3354 32.4255 23.2206C34.7638 21.9452 36.0974 20.289 36.414 18.2459C36.688 18.2278 37.0778 18.2701 37.6014 18.3789C38.1251 18.4877 38.5027 18.5361 38.7219 18.5179C38.8437 18.5179 38.8924 18.3789 38.8741 18.119L38.8863 18.1009ZM5.30373 11.337C6.4607 6.9245 7.45326 4.69407 8.28749 4.62758C8.36056 4.62758 8.40928 4.70011 8.4519 4.85727C8.58587 5.70351 7.91604 8.16968 6.44852 12.28C5.44378 15.0181 4.45732 17.5327 3.49521 19.8115C3.79967 17.575 4.4086 14.7522 5.30982 11.331L5.30373 11.337ZM12.7936 20.3192C12.3552 20.972 11.7584 21.3226 10.9972 21.377C10.5527 21.4072 10.1265 21.3105 9.71239 21.0808C9.22525 20.7907 8.95732 20.3676 8.92078 19.8175C8.86598 19.074 9.18871 18.2036 9.90725 17.2063C10.6258 16.2089 11.2895 15.6891 11.8985 15.6468H11.9715C11.9837 15.8402 11.9959 16.0336 12.0141 16.227C12.0629 16.8738 12.4891 17.3453 13.299 17.6475L13.3538 17.8893C13.4269 18.8564 13.2381 19.6664 12.7997 20.3192H12.7936ZM14.9492 32.372C13.7192 36.1015 12.6657 38.0055 11.7828 38.066C11.4905 38.0841 11.2347 37.9088 11.0094 37.534C10.7841 37.1593 10.6562 36.7785 10.6319 36.3916C10.5284 34.9651 11.2652 32.9402 12.8423 30.3229C14.0662 28.5398 15.278 26.7627 16.4715 24.9795C16.5994 26.3396 16.0879 28.7997 14.9431 32.366L14.9492 32.372ZM17.4823 20.0351C17.2631 20.0532 17.1413 19.9142 17.1231 19.6241C17.0744 18.9773 17.2753 17.9618 17.7137 16.5776C18.1522 15.1934 18.5845 14.4923 18.9986 14.456C19.2665 14.4379 19.4309 14.7401 19.4736 15.3506C19.5284 16.1606 19.37 17.1035 18.9742 18.1734C18.548 19.3763 18.0487 19.9988 17.4884 20.0351H17.4823ZM27.2496 19.2856C26.8112 19.9384 26.2144 20.2829 25.4533 20.3434C25.0087 20.3736 24.5764 20.2769 24.1684 20.0472C23.6752 19.7571 23.4133 19.34 23.3707 18.7899C23.3159 18.0465 23.6447 17.176 24.3633 16.1787C25.0757 15.1813 25.7395 14.6615 26.3545 14.6192H26.4275C26.4458 14.8066 26.458 15.0061 26.4702 15.1995C26.5189 15.8462 26.939 16.3238 27.7489 16.6199L27.8037 16.8617C27.8707 17.8349 27.688 18.6449 27.2557 19.2916L27.2496 19.2856ZM34.0026 20.9962C33.4181 21.7215 32.73 22.1144 31.9506 22.1749C31.3599 22.2172 31.0493 21.9935 31.0128 21.51C30.9641 20.7665 31.4939 20.0593 32.6326 19.3944C33.4546 18.9108 34.2828 18.5784 35.0987 18.3849C34.9526 19.4065 34.5872 20.2769 33.9966 21.0022L34.0026 20.9962Z" fill="white"/>
<path d="M45.6699 39.6559V31.7617H46.2484V35.334C46.8269 34.7477 47.4784 34.4515 48.2153 34.4515C48.9521 34.4515 49.5062 34.6933 49.9568 35.189C50.4135 35.6786 50.6327 36.3133 50.6327 37.087C50.6327 37.9876 50.3587 38.7069 49.8046 39.2509C49.2504 39.7889 48.5136 40.0669 47.5941 40.0669C46.9913 40.0669 46.3519 39.9279 45.6699 39.6559ZM46.2484 35.9808V39.2509C46.699 39.4201 47.1435 39.5048 47.582 39.5048C48.2822 39.5048 48.8607 39.2811 49.3235 38.8338C49.7863 38.3865 50.0116 37.8183 50.0116 37.1293C50.0116 36.4946 49.835 35.9687 49.4818 35.5577C49.1226 35.1467 48.678 34.9411 48.1422 34.9411C47.4967 34.9411 46.8634 35.2917 46.2484 35.9868V35.9808Z" fill="#5F6063"/>
<path d="M52.5201 31.7617V32.747H51.9355V31.7617H52.5201ZM52.5201 34.5603V39.9581H51.9355V34.5603H52.5201Z" fill="#5F6063"/>
<path d="M56.6427 34.457C57.4282 34.457 58.0859 34.723 58.6156 35.261C59.1454 35.7929 59.4073 36.4638 59.4073 37.2677C59.4073 38.0717 59.1454 38.7305 58.6156 39.2685C58.092 39.8004 57.4343 40.0724 56.6427 40.0724C55.8511 40.0724 55.1934 39.8004 54.6637 39.2685C54.1339 38.7366 53.8721 38.0656 53.8721 37.2677C53.8721 36.4699 54.14 35.7929 54.6637 35.261C55.1934 34.723 55.8511 34.457 56.6427 34.457ZM56.6427 39.5042C57.2516 39.5042 57.7631 39.2927 58.1711 38.8695C58.5852 38.4464 58.7861 37.9145 58.7861 37.2738C58.7861 36.6331 58.5791 36.1011 58.1711 35.672C57.7571 35.2428 57.2516 35.0252 56.6427 35.0252C56.0338 35.0252 55.5162 35.2428 55.1021 35.6659C54.688 36.0951 54.481 36.627 54.481 37.2738C54.481 37.9206 54.688 38.4525 55.1021 38.8695C55.5162 39.2927 56.0216 39.5042 56.6427 39.5042Z" fill="#5F6063"/>
<path d="M63.6704 34.9106V35.5331C63.1163 35.1644 62.617 34.977 62.1785 34.977C61.8497 34.977 61.5757 35.0677 61.3504 35.243C61.1251 35.4123 61.0155 35.6299 61.0155 35.8898C61.0155 36.0711 61.0824 36.2464 61.2164 36.3975C61.3565 36.5547 61.7279 36.7481 62.349 36.9838C62.964 37.2256 63.3659 37.4614 63.5547 37.7213C63.7435 37.9812 63.8409 38.2592 63.8409 38.5735C63.8409 38.9906 63.6704 39.3472 63.3294 39.6313C62.9884 39.9215 62.5621 40.0666 62.0567 40.0666C61.5087 40.0666 60.9668 39.9033 60.4248 39.5649V39.0027C61.0703 39.3352 61.6366 39.4984 62.1359 39.4984C62.4647 39.4984 62.7387 39.4077 62.958 39.2324C63.1711 39.0571 63.2807 38.8274 63.2807 38.5615C63.2807 38.3741 63.2137 38.1988 63.0736 38.0416C62.9336 37.8784 62.5561 37.685 61.9349 37.4432C61.3199 37.1954 60.918 36.9597 60.7414 36.7179C60.5588 36.4821 60.4613 36.2222 60.4613 35.9321C60.4613 35.5211 60.6379 35.1705 60.9728 34.8864C61.3138 34.5962 61.734 34.4512 62.2211 34.4512C62.6657 34.4512 63.1528 34.6023 63.6765 34.9045L63.6704 34.9106Z" fill="#5F6063"/>
<path d="M69.3393 34.5605L65.2655 42.7207H64.6749L66.5808 38.9066L64.2852 34.5605H64.9002L66.867 38.3323L68.7486 34.5605H69.3454H69.3393Z" fill="#5F6063"/>
<path d="M72.9983 34.9106V35.5331C72.4503 35.1644 71.9509 34.977 71.5125 34.977C71.1898 34.977 70.9097 35.0677 70.6904 35.243C70.4651 35.4123 70.3555 35.6299 70.3555 35.8898C70.3555 36.0711 70.4164 36.2464 70.5565 36.3975C70.6965 36.5547 71.068 36.7481 71.683 36.9838C72.298 37.2256 72.6999 37.4614 72.8948 37.7213C73.0835 37.9812 73.1749 38.2592 73.1749 38.5735C73.1749 38.9906 72.9983 39.3472 72.6573 39.6313C72.3163 39.9215 71.8961 40.0666 71.3907 40.0666C70.8427 40.0666 70.2946 39.9033 69.7588 39.5649V39.0027C70.3982 39.3352 70.9706 39.4984 71.4638 39.4984C71.7987 39.4984 72.0727 39.4077 72.2858 39.2324C72.5051 39.0571 72.6086 38.8274 72.6086 38.5615C72.6086 38.3741 72.5355 38.1988 72.4015 38.0416C72.2615 37.8784 71.8779 37.685 71.2689 37.4432C70.6478 37.1954 70.252 36.9597 70.0693 36.7179C69.8867 36.4821 69.7953 36.2222 69.7953 35.9321C69.7953 35.5211 69.9658 35.1705 70.3129 34.8864C70.6478 34.5962 71.068 34.4512 71.5551 34.4512C71.9997 34.4512 72.4807 34.6023 73.0044 34.9045L72.9983 34.9106Z" fill="#5F6063"/>
<path d="M75.3553 32.7717V34.5609H76.8777V35.0263H75.3553V38.242C75.3553 38.7558 75.398 39.0943 75.4832 39.2575C75.5685 39.4207 75.7938 39.4992 76.1713 39.4992C76.4514 39.4992 76.7863 39.4086 77.1639 39.2333V39.7833C76.7802 39.9707 76.4088 40.0614 76.0434 40.0614C75.6781 40.0614 75.3858 39.9586 75.1422 39.7531C74.8986 39.5476 74.783 39.2696 74.783 38.9069V35.0202H73.3154V34.5548H74.783V33.2673L75.1788 32.7656H75.3614L75.3553 32.7717Z" fill="#5F6063"/>
<path d="M82.5777 37.0622H78.2969C78.2847 37.1589 78.2725 37.2496 78.2725 37.3463C78.2725 37.9508 78.4918 38.4585 78.9241 38.8816C79.3564 39.2987 79.874 39.5042 80.4586 39.5042C81.1467 39.5042 81.8287 39.2383 82.4803 38.7003V39.3531C81.8531 39.8306 81.1589 40.0724 80.3855 40.0724C79.6122 40.0724 78.9545 39.8004 78.443 39.2624C77.9315 38.7245 77.6758 38.0354 77.6758 37.2013C77.6758 36.3671 77.9133 35.7566 78.3821 35.2368C78.8571 34.7169 79.4478 34.457 80.1663 34.457C80.8422 34.457 81.4085 34.6928 81.8774 35.1582C82.3463 35.6236 82.5716 36.2583 82.5716 37.0622H82.5777ZM78.37 36.6028H81.8896C81.6886 35.5511 81.1162 35.0192 80.1663 35.0192C79.7218 35.0192 79.3382 35.1582 79.0093 35.4362C78.6927 35.7143 78.4674 36.1011 78.3639 36.6028H78.37Z" fill="#5F6063"/>
<path d="M84.3002 34.5598V35.5088H84.3184C84.7629 34.8076 85.3414 34.457 86.0539 34.457C86.8881 34.457 87.4727 34.8922 87.8137 35.7506C88.3252 34.8862 88.9524 34.457 89.7014 34.457C90.2616 34.457 90.7183 34.6565 91.0654 35.0554C91.4064 35.4544 91.5891 35.9803 91.5891 36.6452V39.9576H91.0045V36.899C91.0045 36.3187 90.8827 35.8594 90.633 35.5269C90.3834 35.1945 90.0363 35.0252 89.5857 35.0252C89.2508 35.0252 88.9646 35.128 88.7149 35.3274C88.4652 35.5269 88.2095 35.8473 87.9477 36.2885V39.9636H87.3631V36.8869C87.3631 36.2885 87.2352 35.8291 86.9734 35.5027C86.7176 35.1824 86.3705 35.0192 85.9382 35.0192C85.3049 35.0192 84.7629 35.406 84.3002 36.1737V39.9576H83.7217V34.5598H84.3002Z" fill="#5F6063"/>
<path d="M96.071 34.9106V35.5331C95.5169 35.1644 95.0237 34.977 94.5792 34.977C94.2564 34.977 93.9763 35.0677 93.751 35.243C93.5257 35.4123 93.4161 35.6299 93.4161 35.8898C93.4161 36.0711 93.477 36.2464 93.617 36.3975C93.751 36.5547 94.1346 36.7481 94.7436 36.9838C95.3647 37.2256 95.7666 37.4614 95.9553 37.7213C96.1441 37.9812 96.2354 38.2592 96.2354 38.5735C96.2354 38.9906 96.0649 39.3472 95.7239 39.6313C95.3769 39.9215 94.9567 40.0666 94.4513 40.0666C93.9032 40.0666 93.3613 39.9033 92.8193 39.5649V39.0027C93.4587 39.3352 94.0311 39.4984 94.5304 39.4984C94.8654 39.4984 95.1394 39.4077 95.3525 39.2324C95.5656 39.0571 95.6752 38.8274 95.6752 38.5615C95.6752 38.3741 95.6022 38.1988 95.4682 38.0416C95.3281 37.8784 94.9506 37.685 94.3295 37.4432C93.7145 37.1954 93.3187 36.9597 93.1299 36.7179C92.9533 36.4821 92.8559 36.2222 92.8559 35.9321C92.8559 35.5211 93.0264 35.1705 93.3674 34.8864C93.7084 34.5962 94.1164 34.4512 94.6096 34.4512C95.0541 34.4512 95.5413 34.6023 96.0649 34.9045L96.071 34.9106Z" fill="#5F6063"/>
<path d="M0.462891 48.2266H1.18143V51.14H1.1997C1.37629 50.8076 1.64422 50.5356 2.00349 50.318C2.36884 50.1004 2.78292 49.9916 3.2457 49.9916C3.70849 49.9916 4.09821 50.0641 4.4453 50.2031C4.79239 50.3421 5.07859 50.5356 5.30389 50.7834C5.5292 51.0312 5.6997 51.3093 5.8093 51.6296C5.91891 51.95 5.9798 52.2825 5.9798 52.6391C5.9798 52.9655 5.93109 53.2858 5.83366 53.5941C5.73623 53.9024 5.584 54.1865 5.36478 54.4404C5.15166 54.6942 4.86546 54.8997 4.51228 55.0508C4.1591 55.202 3.73894 55.2805 3.2457 55.2805C2.95951 55.2805 2.70376 55.2443 2.46627 55.1657C2.22879 55.0871 2.02784 54.9904 1.85734 54.8756C1.68684 54.7547 1.54679 54.6338 1.44327 54.5068C1.33975 54.3799 1.2545 54.253 1.1997 54.1321H1.18143V55.1294H0.462891V48.2266ZM1.73556 54.1381C2.13136 54.5068 2.63677 54.6882 3.2457 54.6882C3.5928 54.6882 3.89726 54.6277 4.1591 54.5129C4.42094 54.398 4.62798 54.2409 4.79239 54.0475C4.95071 53.854 5.0725 53.6364 5.15166 53.3886C5.23082 53.1408 5.26735 52.8929 5.26735 52.633C5.26735 52.0104 5.07859 51.5148 4.69496 51.14C4.31133 50.7653 3.83028 50.5779 3.25179 50.5779C2.89861 50.5779 2.58806 50.6323 2.32622 50.7471C2.06438 50.862 1.83907 51.0131 1.66248 51.2126C1.48589 51.412 1.35193 51.6296 1.27277 51.8714C1.19361 52.1132 1.14489 52.3671 1.14489 52.627C1.14489 53.2617 1.34584 53.7573 1.74165 54.126L1.73556 54.1381Z" fill="#5F6063"/>
<path d="M11.0098 50.1426H11.7831L9.06119 56.0602C8.87242 56.4591 8.68365 56.7251 8.48271 56.8581C8.28176 56.9971 7.98947 57.0636 7.59367 57.0636C7.27702 57.0636 7.05172 57.0575 6.90558 57.0454V56.4531C7.11261 56.4652 7.28311 56.4712 7.41708 56.4712C7.67892 56.4712 7.88595 56.4289 8.0321 56.3443C8.17824 56.2597 8.30612 56.0964 8.41572 55.8547L8.74455 55.1656L6.30273 50.1426H7.07608L9.12208 54.2952L11.0159 50.1426H11.0098Z" fill="#5F6063"/>
<path d="M49.0486 52.9541C48.8233 52.9541 48.6406 52.7728 48.6406 52.5552C48.6406 52.3376 48.8233 52.1562 49.0486 52.1562H52.4343C52.6596 52.1562 52.8483 52.3315 52.8483 52.5552C52.8483 52.7788 52.6657 52.9541 52.4343 52.9541H49.0486Z" fill="#5F6063"/>
<path d="M114.795 52.1674L112.773 51.9377C111.616 51.835 111.519 51.5267 111.519 51.2124C111.519 50.9283 111.622 50.5475 112.511 50.5475H116.604V49.6348H112.566C111.269 49.6348 110.526 50.215 110.526 51.2245C110.526 52.2339 111.202 52.7477 112.578 52.8565L114.679 53.0802C115.842 53.1769 116.007 53.5214 116.007 53.872C116.007 54.3676 115.617 54.6094 114.813 54.6094H110.581V55.5221H114.783C116.616 55.5221 116.999 54.6094 116.999 53.8478C116.999 52.8263 116.299 52.2883 114.801 52.1614L114.795 52.1674Z" fill="#5F6063"/>
<path d="M70.5868 52.4576V55.5403H66.373C64.5218 55.5403 63.8398 54.5369 63.8398 52.5785C63.8398 50.62 64.5158 49.6348 66.373 49.6348H70.5259V50.5596H66.44C65.0821 50.5596 64.7776 51.2487 64.7776 52.5785C64.7776 53.9082 65.0821 54.6094 66.44 54.6094H69.6551V52.4576H70.5868Z" fill="#5F6063"/>
<path d="M37.6737 52.4576V55.5403H33.4599C31.6088 55.5403 30.9268 54.5369 30.9268 52.5785C30.9268 50.62 31.6027 49.6348 33.4599 49.6348H37.6128V50.5596H33.5269C32.169 50.5596 31.8645 51.2487 31.8645 52.5785C31.8645 53.9082 32.169 54.6094 33.5269 54.6094H36.742V52.4576H37.6737Z" fill="#5F6063"/>
<path d="M80.0803 55.5403H79.1426V49.6348H79.8002C81.1581 49.6348 81.5296 50.1425 82.9667 52.3004C84.3246 54.3495 84.4098 54.5792 85.1101 54.5792H85.1466V49.6348H86.0783V55.5403H85.4267C84.0871 55.5403 83.7765 55.0628 82.2786 52.8807C80.8354 50.7893 80.7989 50.6019 80.123 50.6019H80.0864V55.5403H80.0803Z" fill="#5F6063"/>
<path d="M39.5745 55.5403H38.6367V49.6348H39.2944C40.6523 49.6348 41.0237 50.1425 42.4608 52.3004C43.8187 54.3495 43.904 54.5792 44.6042 54.5792H44.6408V49.6348H45.5724V55.5403H44.9209C43.5812 55.5403 43.2707 55.0628 41.7727 52.8807C40.3295 50.7893 40.293 50.6019 39.6171 50.6019H39.5806V55.5403H39.5745Z" fill="#5F6063"/>
<path d="M109.814 54.6036H105.886C104.534 54.6036 104.224 53.9205 104.224 52.5726C104.224 51.2247 104.528 50.5537 105.886 50.5537H109.814V49.6289H105.819C103.968 49.6289 103.286 50.6202 103.286 52.5726C103.286 54.525 103.962 55.5344 105.819 55.5344H109.814V54.6036Z" fill="#5F6063"/>
<path d="M74.1548 50.5596H78.2408V49.6348H74.0878C72.2367 49.6348 71.5547 50.6261 71.5547 52.5785C71.5547 54.5308 72.2306 55.5403 74.0878 55.5403H78.2408V54.6094H74.1548C72.9613 54.6094 72.5655 54.0775 72.4924 53.0318H78.1007V52.1553H72.4924C72.5655 51.1096 72.9552 50.5596 74.1548 50.5596Z" fill="#5F6063"/>
<path d="M48.9878 50.5596C47.7882 50.5596 47.3924 51.1036 47.3254 52.1553C47.3254 52.1553 47.2889 52.5724 47.3254 53.0318C47.3985 54.0775 47.7943 54.6094 48.9878 54.6094H53.0738V55.5403H48.9208C47.0697 55.5403 46.3877 54.5369 46.3877 52.5785C46.3877 50.62 47.0636 49.6348 48.9208 49.6348H53.0738V50.5596H48.9878Z" fill="#5F6063"/>
<path d="M89.6646 50.5596H93.7505V49.6348H89.5976C87.7465 49.6348 87.0645 50.6261 87.0645 52.5785C87.0645 54.5308 87.7404 55.5403 89.5976 55.5403H93.7505V54.6094H89.6646C88.4711 54.6094 88.0753 54.0775 88.0022 53.0318H93.6044V52.1553H88.0022C88.0692 51.1096 88.465 50.5596 89.6646 50.5596Z" fill="#5F6063"/>
<path d="M100.559 49.6348H98.0498H97.1182H94.6094V50.5596H97.1182V55.5403H98.0498V50.5596H100.559V49.6348Z" fill="#5F6063"/>
<path d="M102.349 49.6348H101.417V55.5403H102.349V49.6348Z" fill="#5F6063"/>
<path d="M30.0928 49.6348H29.1611V55.5403H30.0928V49.6348Z" fill="#5F6063"/>
<path d="M20.886 55.5463H21.9942L19.8934 50.8739C19.6011 50.0881 19.0165 49.6348 18.2919 49.6348C17.3176 49.6348 16.8731 50.4085 16.6965 50.8739L14.5957 55.5524H15.7161L17.8169 50.9102C17.89 50.747 18.0971 50.6079 18.2919 50.6079C18.4868 50.6079 18.6999 50.7409 18.7669 50.9041L20.8799 55.5463H20.886Z" fill="#5F6063"/>
<path d="M24.8928 55.5463H28.3516V54.6034H24.5336C23.9064 54.6034 23.4375 54.1379 23.4375 53.4307V49.6348H22.4815V53.4368C22.4815 53.4368 22.4693 54.3858 22.993 54.9056C23.6141 55.5161 24.2595 55.5524 24.8867 55.5524L24.8928 55.5463Z" fill="#5F6063"/>
<path d="M58.2804 49.6348H54.1396V55.5403H58.2804C60.1315 55.5403 60.8135 54.549 60.8135 52.5966C60.8135 50.6442 60.1376 49.6348 58.2804 49.6348ZM58.2195 54.6155H55.0652V50.5656H58.2195C59.5713 50.5656 59.8758 51.2487 59.8758 52.5966C59.8758 53.9445 59.5713 54.6155 58.2195 54.6155Z" fill="#5F6063"/>
</g>
<defs>
<clipPath id="clip0_220_362">
<rect width="117" height="57" fill="white" transform="translate(0 0.0644531)"/>
</clipPath>
</defs>
</svg>
