<svg width="33" height="37" viewBox="0 0 33 37" fill="none" xmlns="http://www.w3.org/2000/svg">
<path d="M27.7693 18.2236C28.682 17.311 29.452 16.3984 30.0794 15.4858C30.7068 14.5732 31.1916 13.7176 31.5338 12.9191C31.8761 12.1206 32.0614 11.3648 32.09 10.6518C32.1185 9.93886 31.9616 9.29719 31.6194 8.72681C31.5053 8.49866 31.3342 8.27051 31.1061 8.04235C30.8779 7.8142 30.5642 7.61457 30.1649 7.44345C29.8227 7.27234 29.3949 7.12975 28.8816 7.01567C28.3682 6.90159 27.7693 6.84456 27.0849 6.84456C26.6856 6.84456 26.2721 6.85881 25.8443 6.88734C25.4165 6.91585 24.9745 6.95863 24.5182 7.01567C24.0619 7.12975 23.6056 7.24382 23.1493 7.3579C22.693 7.47197 22.2081 7.58605 21.6948 7.70013C21.3526 6.55936 20.9676 5.50417 20.5398 4.53452C20.112 3.56487 19.67 2.73783 19.2136 2.05337C18.7003 1.42595 18.1442 0.92687 17.5453 0.556121C16.9464 0.185371 16.3332 0 15.7058 0C15.0784 0 14.4795 0.171112 13.9091 0.513342C13.3387 0.855571 12.8254 1.36891 12.3691 2.05337C11.8557 2.68079 11.3852 3.46505 10.9574 4.40618C10.5296 5.34731 10.1446 6.38825 9.80238 7.52901C9.34608 7.41494 8.9183 7.31512 8.51903 7.22956C8.11976 7.144 7.7205 7.07271 7.32123 7.01567C6.92196 6.95863 6.53696 6.91585 6.16621 6.88734C5.79546 6.85881 5.43898 6.84456 5.09675 6.84456C4.35525 6.84456 3.72784 6.90159 3.2145 7.01567C2.70115 7.12975 2.27337 7.27234 1.93114 7.44345C1.53188 7.61457 1.21817 7.8142 0.990017 8.04235C0.761863 8.27051 0.590751 8.49866 0.476675 8.72681C0.191484 9.18311 0.0346302 9.68219 0.00611126 10.2241C-0.0224077 10.7659 0.0488888 11.3506 0.220005 11.978C0.391118 12.6054 0.662046 13.2756 1.03279 13.9886C1.40354 14.7015 1.90262 15.4288 2.53004 16.1703C2.75819 16.5125 3.02912 16.8547 3.34283 17.1969C3.65654 17.5392 3.98451 17.8814 4.32674 18.2236C3.41413 19.1362 2.64412 20.0488 2.0167 20.9615C1.38928 21.8741 0.904462 22.7296 0.562232 23.5282C0.220003 24.3267 0.0346302 25.0824 0.00611126 25.7954C-0.0224077 26.5084 0.134446 27.1501 0.476675 27.7205C0.590751 27.9486 0.761863 28.1768 0.990017 28.4049C1.21817 28.6331 1.53188 28.8327 1.93114 29.0038C2.27337 29.1749 2.70115 29.3175 3.2145 29.4316C3.72784 29.5457 4.35525 29.6027 5.09675 29.6027C5.43898 29.6027 5.79546 29.5884 6.16621 29.5599C6.53696 29.5314 6.92196 29.4886 7.32123 29.4316C7.7205 29.3746 8.11976 29.3033 8.51903 29.2177C8.9183 29.1321 9.34608 29.0323 9.80238 28.9182C10.1446 30.059 10.5296 31.0999 10.9574 32.0411C11.3852 32.9822 11.8557 33.7665 12.3691 34.3939C12.8254 35.0784 13.3387 35.5917 13.9091 35.9339C14.4795 36.2761 15.0784 36.4473 15.7058 36.4473C16.3332 36.4473 16.9464 36.2619 17.5453 35.8911C18.1442 35.5204 18.7003 35.0213 19.2136 34.3939C19.67 33.7094 20.112 32.8824 20.5398 31.9127C20.9676 30.9431 21.3526 29.8879 21.6948 28.7471C22.2081 28.8612 22.693 28.9753 23.1493 29.0894C23.6056 29.2034 24.0619 29.3175 24.5182 29.4316C24.9745 29.4886 25.4165 29.5314 25.8443 29.5599C26.2721 29.5884 26.6856 29.6027 27.0849 29.6027C27.7693 29.6027 28.3682 29.5457 28.8816 29.4316C29.3949 29.3175 29.8227 29.1749 30.1649 29.0038C30.5642 28.8327 30.8779 28.6331 31.1061 28.4049C31.3342 28.1768 31.5053 27.9486 31.6194 27.7205C31.9616 27.1501 32.1185 26.5084 32.09 25.7954C32.0614 25.0824 31.8761 24.3267 31.5338 23.5282C31.1916 22.7296 30.7068 21.8741 30.0794 20.9615C29.452 20.0488 28.682 19.1362 27.7693 18.2236ZM27.0849 8.29902C27.3701 8.29902 27.6695 8.31328 27.9832 8.3418C28.2969 8.37032 28.6249 8.4131 28.9671 8.47014C29.2523 8.58421 29.5233 8.72681 29.7799 8.89792C30.0366 9.06904 30.2505 9.26867 30.4216 9.49682C30.6498 9.89609 30.7353 10.3666 30.6783 10.9085C30.6212 11.4504 30.4216 12.035 30.0794 12.6624C29.7942 13.3469 29.3664 14.0741 28.796 14.8441C28.2256 15.6141 27.5412 16.3984 26.7427 17.1969C26.4575 16.9118 26.158 16.6408 25.8443 16.3842C25.5306 16.1275 25.2026 15.8566 24.8604 15.5714C24.5752 15.2862 24.2472 15.0152 23.8765 14.7586C23.5058 14.5019 23.1493 14.231 22.807 13.9458C22.75 13.5465 22.7072 13.133 22.6787 12.7052C22.6502 12.2774 22.5789 11.8639 22.4648 11.4646C22.4078 11.0654 22.3507 10.6661 22.2937 10.2668C22.2367 9.86757 22.1511 9.49682 22.037 9.15459C22.4933 8.98348 22.9496 8.85515 23.4059 8.76959C23.8622 8.68403 24.29 8.58421 24.6893 8.47014C25.1456 8.4131 25.5591 8.37032 25.9299 8.3418C26.3006 8.31328 26.6856 8.29902 27.0849 8.29902ZM19.0425 23.1859C18.8144 23.357 18.572 23.5139 18.3153 23.6565C18.0586 23.7991 17.8162 23.9274 17.5881 24.0415C17.3029 24.2126 17.0462 24.3552 16.8181 24.4693C16.5899 24.5834 16.3332 24.726 16.048 24.8971C15.8199 24.726 15.5775 24.5834 15.3208 24.4693C15.0641 24.3552 14.7932 24.2126 14.508 24.0415C14.2799 23.9274 14.0375 23.7991 13.7808 23.6565C13.5241 23.5139 13.2817 23.357 13.0535 23.1859C12.7684 23.0148 12.4974 22.8437 12.2408 22.6726C11.9841 22.5015 11.7417 22.3589 11.5135 22.2448C11.2283 22.0737 10.9717 21.9026 10.7435 21.7315C10.5154 21.5604 10.2872 21.3892 10.0591 21.2181C10.002 20.9329 9.9735 20.6763 9.9735 20.4481C9.9735 20.22 9.9735 19.9918 9.9735 19.7637C9.9735 19.4785 9.95924 19.2075 9.93072 18.9509C9.9022 18.6942 9.88794 18.4518 9.88794 18.2236C9.88794 17.9955 9.9022 17.7531 9.93072 17.4964C9.95924 17.2397 9.9735 16.9688 9.9735 16.6836C9.9735 16.4555 9.9735 16.213 9.9735 15.9564C9.9735 15.6997 10.002 15.4573 10.0591 15.2291C10.2872 15.058 10.5154 14.8869 10.7435 14.7158C10.9717 14.5447 11.2283 14.4021 11.5135 14.288C11.7417 14.1169 11.9841 13.9458 12.2408 13.7747C12.4974 13.6036 12.7684 13.4324 13.0535 13.2613C13.2817 13.0902 13.5241 12.9334 13.7808 12.7908C14.0375 12.6482 14.2799 12.5198 14.508 12.4058C14.7932 12.2346 15.0641 12.092 15.3208 11.978C15.5775 11.8639 15.8199 11.7213 16.048 11.5502C16.3332 11.7213 16.5899 11.8639 16.8181 11.978C17.0462 12.092 17.3029 12.2346 17.5881 12.4058C17.8162 12.5198 18.0586 12.6482 18.3153 12.7908C18.572 12.9334 18.8144 13.0902 19.0425 13.2613C19.4988 13.4895 19.9124 13.7319 20.2831 13.9886C20.6539 14.2452 21.0389 14.5162 21.4381 14.8014C21.4381 15.0865 21.4524 15.3717 21.4809 15.6569C21.5094 15.9421 21.5237 16.2273 21.5237 16.5125C21.5237 16.7977 21.5237 17.0829 21.5237 17.3681C21.5237 17.6533 21.5237 17.9384 21.5237 18.2236C21.5237 18.5088 21.5237 18.794 21.5237 19.0792C21.5237 19.3644 21.5237 19.6496 21.5237 19.9348C21.5237 20.22 21.5094 20.5051 21.4809 20.7903C21.4524 21.0755 21.4381 21.3607 21.4381 21.6459C21.0389 21.9311 20.6539 22.202 20.2831 22.4587C19.9124 22.7154 19.4988 22.9578 19.0425 23.1859ZM21.267 23.5282C21.21 23.8134 21.1529 24.0985 21.0959 24.3837C21.0389 24.6689 21.0103 24.9541 21.0103 25.2393C20.9533 25.5245 20.8963 25.7954 20.8392 26.0521C20.7822 26.3088 20.7252 26.5797 20.6681 26.8649C20.44 26.7508 20.1976 26.651 19.9409 26.5654C19.6842 26.4799 19.4418 26.3801 19.2136 26.266C18.9855 26.2089 18.7431 26.1234 18.4864 26.0093C18.2297 25.8952 17.9588 25.7812 17.6736 25.6671C18.0729 25.496 18.4436 25.2963 18.7859 25.0682C19.1281 24.84 19.4703 24.6404 19.8125 24.4693C20.0407 24.2982 20.2831 24.1413 20.5398 23.9987C20.7965 23.8561 21.0389 23.6993 21.267 23.5282ZM14.4225 25.6671C14.1373 25.7812 13.8378 25.9095 13.5241 26.0521C13.2104 26.1947 12.911 26.323 12.6258 26.4371C12.3406 26.5512 12.0411 26.6653 11.7274 26.7793C11.4137 26.8934 11.1143 26.979 10.8291 27.036C10.772 26.7508 10.715 26.4514 10.658 26.1376C10.6009 25.8239 10.5439 25.496 10.4868 25.1537C10.4298 24.8115 10.3728 24.4693 10.3157 24.1271C10.2587 23.7848 10.2302 23.4426 10.2302 23.1004C10.5154 23.3285 10.8433 23.5567 11.2141 23.7848C11.5848 24.013 11.9413 24.2411 12.2835 24.4693C12.6258 24.6404 12.9822 24.84 13.353 25.0682C13.7237 25.2963 14.0802 25.496 14.4225 25.6671ZM8.51903 20.0203C8.11976 19.7351 7.74902 19.4357 7.40679 19.122C7.06456 18.8083 6.72233 18.5088 6.3801 18.2236C6.72233 17.9384 7.06456 17.639 7.40679 17.3253C7.74902 17.0116 8.11976 16.7121 8.51903 16.4269C8.51903 16.7121 8.50477 17.0116 8.47625 17.3253C8.44773 17.639 8.43347 17.9384 8.43347 18.2236C8.43347 18.5088 8.44773 18.8083 8.47625 19.122C8.50477 19.4357 8.51903 19.7351 8.51903 20.0203ZM10.2302 13.3469C10.2302 13.0047 10.2587 12.6624 10.3157 12.3202C10.3728 11.978 10.4298 11.6357 10.4868 11.2935C10.5439 10.9513 10.6009 10.6233 10.658 10.3096C10.715 9.9959 10.772 9.69646 10.8291 9.41126C11.1143 9.4683 11.4137 9.55386 11.7274 9.66794C12.0411 9.78201 12.3406 9.89609 12.6258 10.0102C12.911 10.1242 13.2104 10.2526 13.5241 10.3952C13.8378 10.5378 14.1373 10.6661 14.4225 10.7802C14.0802 10.9513 13.7237 11.1509 13.353 11.3791C12.9822 11.6072 12.6258 11.8069 12.2835 11.978C11.9413 12.2061 11.5848 12.4343 11.2141 12.6624C10.8433 12.8906 10.5154 13.1187 10.2302 13.3469ZM17.6736 10.7802C17.9588 10.6661 18.2297 10.552 18.4864 10.4379C18.7431 10.3239 18.9855 10.2383 19.2136 10.1813C19.4418 10.0672 19.6842 9.96739 19.9409 9.88183C20.1976 9.79627 20.44 9.69645 20.6681 9.58238C20.7252 9.86757 20.7822 10.1385 20.8392 10.3952C20.8963 10.6518 20.9533 10.9228 21.0103 11.208C21.0103 11.4932 21.0389 11.7783 21.0959 12.0635C21.1529 12.3487 21.21 12.6339 21.267 12.9191C21.0389 12.748 20.7965 12.5911 20.5398 12.4485C20.2831 12.3059 20.0407 12.1491 19.8125 11.978C19.4703 11.8069 19.1281 11.6072 18.7859 11.3791C18.4436 11.1509 18.0729 10.9513 17.6736 10.7802ZM22.9782 15.9136C23.2063 16.0847 23.4487 16.2701 23.7054 16.4697C23.9621 16.6693 24.2045 16.8547 24.4326 17.0258C24.6608 17.254 24.8747 17.4679 25.0743 17.6675C25.2739 17.8671 25.4878 18.0525 25.716 18.2236C25.4878 18.3947 25.2739 18.5801 25.0743 18.7797C24.8747 18.9794 24.6608 19.1933 24.4326 19.4214C24.2045 19.5925 23.9621 19.7779 23.7054 19.9775C23.4487 20.1772 23.2063 20.3626 22.9782 20.5337C22.9782 20.1344 22.9782 19.7494 22.9782 19.3787C22.9782 19.0079 22.9782 18.6229 22.9782 18.2236C22.9782 17.8244 22.9782 17.4394 22.9782 17.0686C22.9782 16.6979 22.9782 16.3129 22.9782 15.9136ZM15.7058 1.45447C16.1621 1.45447 16.5899 1.61132 16.9892 1.92503C17.3884 2.23874 17.7877 2.68078 18.187 3.25116C18.5862 3.82155 18.9712 4.52025 19.342 5.34731C19.7127 6.17436 20.0407 7.10122 20.3259 8.12791C19.9837 8.24199 19.6414 8.37032 19.2992 8.51292C18.957 8.65551 18.5862 8.81237 18.187 8.98348C17.8447 9.09756 17.4882 9.24015 17.1175 9.41126C16.7468 9.58238 16.3903 9.75349 16.048 9.92461C15.6488 9.75349 15.2352 9.56812 14.8075 9.36849C14.3797 9.16885 13.9662 8.98348 13.5669 8.81237C13.1676 8.64125 12.7684 8.4844 12.3691 8.3418C11.9698 8.19921 11.5706 8.07087 11.1713 7.9568C11.4565 6.93011 11.7844 6.01751 12.1552 5.21897C12.5259 4.42044 12.9109 3.73599 13.3102 3.16561C13.7095 2.59522 14.1087 2.16744 14.508 1.88225C14.9073 1.59706 15.3065 1.45447 15.7058 1.45447ZM1.67447 9.49682C1.84559 9.26867 2.05948 9.06904 2.31615 8.89792C2.57282 8.72681 2.87227 8.58421 3.2145 8.47014C3.49969 8.4131 3.79913 8.37032 4.11284 8.3418C4.42656 8.31328 4.75452 8.29902 5.09675 8.29902C5.38194 8.29902 5.69565 8.31328 6.03788 8.3418C6.38011 8.37032 6.75085 8.4131 7.15012 8.47014C7.49235 8.52718 7.86309 8.59847 8.26236 8.68403C8.66163 8.76959 9.06089 8.8694 9.46015 8.98348C9.34608 9.38275 9.24626 9.81053 9.1607 10.2668C9.07515 10.7231 9.00385 11.1794 8.94681 11.6357C8.88978 12.0921 8.83274 12.5626 8.7757 13.0474C8.71866 13.5323 8.66162 14.0028 8.60459 14.4591C8.31939 14.6873 8.03421 14.9154 7.74902 15.1436C7.46382 15.3717 7.17864 15.5999 6.89345 15.828C6.60825 16.0562 6.33733 16.2843 6.08065 16.5125C5.82398 16.7406 5.58157 16.9688 5.35342 17.1969C5.01119 16.9118 4.69749 16.5981 4.4123 16.2558C4.1271 15.9136 3.87043 15.5999 3.64228 15.3147C3.12894 14.6873 2.71542 14.0884 2.40171 13.518C2.088 12.9476 1.84559 12.4058 1.67447 11.8924C1.50336 11.4361 1.4178 10.9941 1.4178 10.5663C1.4178 10.1385 1.50336 9.78201 1.67447 9.49682ZM5.09675 28.1482C4.75452 28.1482 4.42656 28.134 4.11284 28.1055C3.79913 28.0769 3.49969 28.0342 3.2145 27.9771C2.87227 27.863 2.57282 27.7205 2.31615 27.5493C2.05948 27.3782 1.84559 27.1786 1.67447 26.9504C1.50336 26.5512 1.43206 26.0949 1.46058 25.5815C1.4891 25.0682 1.67447 24.4693 2.0167 23.7848C2.30189 23.1004 2.72967 22.3731 3.30005 21.6031C3.87044 20.8331 4.55489 20.0488 5.35342 19.2503C5.58157 19.4785 5.82398 19.7066 6.08065 19.9348C6.33733 20.1629 6.60825 20.3911 6.89345 20.6192C7.17864 20.8474 7.46382 21.0755 7.74902 21.3037C8.03421 21.5318 8.31939 21.76 8.60459 21.9881C8.66162 22.4444 8.71866 22.915 8.7757 23.3998C8.83274 23.8847 8.88978 24.3552 8.94681 24.8115C9.00385 25.2678 9.07515 25.7241 9.1607 26.1804C9.24626 26.6367 9.34608 27.0645 9.46015 27.4638C9.06089 27.5779 8.66163 27.6777 8.26236 27.7632C7.86309 27.8488 7.49235 27.9201 7.15012 27.9771C6.75085 28.0342 6.38011 28.0769 6.03788 28.1055C5.69565 28.134 5.38194 28.1482 5.09675 28.1482ZM15.7058 34.9928C15.3065 34.9928 14.9073 34.8502 14.508 34.565C14.1087 34.2798 13.7095 33.852 13.3102 33.2817C12.9109 32.7113 12.5259 32.0268 12.1552 31.2283C11.7844 30.4298 11.4565 29.5172 11.1713 28.4905C11.5706 28.3764 11.9698 28.2481 12.3691 28.1055C12.7684 27.9629 13.1676 27.806 13.5669 27.6349C13.9662 27.4638 14.3797 27.2784 14.8075 27.0788C15.2352 26.8791 15.6488 26.6938 16.048 26.5227C16.3903 26.6938 16.7468 26.8649 17.1175 27.036C17.4882 27.2071 17.8447 27.3497 18.187 27.4638C18.5862 27.6349 18.957 27.7917 19.2992 27.9343C19.6414 28.0769 19.9837 28.2053 20.3259 28.3194C20.0407 29.346 19.7127 30.2729 19.342 31.1C18.9712 31.927 18.5862 32.6257 18.187 33.1961C17.7877 33.7665 17.3884 34.2085 16.9892 34.5222C16.5899 34.8359 16.1621 34.9928 15.7058 34.9928ZM30.4216 26.9504C30.2505 27.1786 30.0366 27.3782 29.7799 27.5493C29.5233 27.7205 29.2523 27.863 28.9671 27.9771C28.6249 28.0342 28.2969 28.0769 27.9832 28.1055C27.6695 28.134 27.3701 28.1482 27.0849 28.1482C26.6856 28.1482 26.3006 28.134 25.9299 28.1055C25.5591 28.0769 25.1456 28.0342 24.6893 27.9771C24.29 27.863 23.8622 27.7632 23.4059 27.6777C22.9496 27.5921 22.4933 27.4638 22.037 27.2927C22.1511 26.9504 22.2367 26.5797 22.2937 26.1804C22.3507 25.7812 22.4078 25.3819 22.4648 24.9826C22.5789 24.5834 22.6502 24.1698 22.6787 23.7421C22.7072 23.3143 22.75 22.9007 22.807 22.5015C23.1493 22.2163 23.5058 21.9454 23.8765 21.6887C24.2472 21.432 24.5752 21.1611 24.8604 20.8759C25.2026 20.5907 25.5306 20.3198 25.8443 20.0631C26.158 19.8064 26.4575 19.5355 26.7427 19.2503C27.5412 20.0488 28.2256 20.8331 28.796 21.6031C29.3664 22.3731 29.7942 23.1004 30.0794 23.7848C30.4216 24.4693 30.6212 25.0682 30.6783 25.5815C30.7353 26.0949 30.6498 26.5512 30.4216 26.9504Z" fill="#D0D0D0"/>
</svg>
