<svg width="36" height="36" viewBox="0 0 36 36" fill="none" xmlns="http://www.w3.org/2000/svg">
<path d="M17.5392 0H5.90343C4.99082 0 4.17803 0.142593 3.46506 0.427785C2.75208 0.712976 2.13893 1.11224 1.62558 1.62558C1.11224 2.13893 0.712976 2.75208 0.427785 3.46506C0.142593 4.17803 0 4.99082 0 5.90343V30.116C0 30.4012 0.057038 30.829 0.171114 31.3994C0.28519 31.9698 0.541859 32.5116 0.941126 33.025C1.34039 33.5954 1.93929 34.0802 2.73782 34.4795C3.53636 34.8787 4.62007 35.0784 5.98899 35.0784H35.0784V0H17.5392ZM16.0847 1.45447V15.4858L12.4913 12.1491L8.5557 15.5714V1.45447H16.0847ZM5.90343 1.45447H7.10123V18.6514L12.4913 14.1169L17.5392 18.737V1.45447H33.6239V25.5815H5.90343C5.39009 25.5815 4.93379 25.61 4.53452 25.6671C4.13525 25.7241 3.73599 25.8097 3.33672 25.9238C2.99449 26.0949 2.66653 26.266 2.35282 26.4371C2.03911 26.6082 1.73966 26.8364 1.45447 27.1216V5.90343C1.45447 5.21897 1.56854 4.60582 1.7967 4.06395C2.02485 3.52209 2.31004 3.05153 2.65227 2.65227C3.05153 2.31004 3.52209 2.02485 4.06395 1.7967C4.60582 1.56854 5.21897 1.45447 5.90343 1.45447ZM5.98899 33.6239C5.13341 33.6239 4.4347 33.5383 3.89284 33.3672C3.35098 33.1961 2.90894 32.9679 2.56671 32.6828C2.22448 32.3976 1.96781 32.0696 1.7967 31.6989C1.62558 31.3281 1.54003 30.9716 1.54003 30.6294C1.54003 30.059 1.63984 29.5457 1.83947 29.0894C2.03911 28.6331 2.31004 28.2623 2.65227 27.9771C3.05153 27.6919 3.52209 27.4638 4.06395 27.2927C4.60582 27.1216 5.21897 27.036 5.90343 27.036H33.6239V33.6239H5.98899Z" fill="#D0D0D0"/>
</svg>
