<svg width="38" height="35" viewBox="0 0 38 35" fill="none" xmlns="http://www.w3.org/2000/svg">
<path d="M37.9873 26.266V0H0V26.266H18.2236V29.0894L11.3791 32.9394L12.0635 34.2228L18.9936 30.3727L25.9238 34.2228L26.6082 32.9394L19.7637 29.0894V26.266H37.9873ZM1.45447 1.45447H36.5328V24.8115H1.45447V1.45447ZM18.0525 16.3414L13.6891 10.2668L10.7802 15.9136L6.24566 6.759L2.90894 18.9936L4.3634 19.3359L6.67344 10.7802L10.7802 19.1648L13.8602 13.0902L18.5659 19.5925L22.587 6.07454L21.2181 5.64676L18.0525 16.3414ZM29.1749 8.72681C28.6045 8.72681 28.0484 8.85514 27.5066 9.11182C26.9647 9.36849 26.4941 9.66793 26.0949 10.0102C25.6956 10.4094 25.3819 10.88 25.1537 11.4219C24.9256 11.9637 24.8115 12.5483 24.8115 13.1758C24.8115 13.7462 24.9256 14.3023 25.1537 14.8441C25.3819 15.386 25.6956 15.8566 26.0949 16.2558C26.4941 16.6551 26.9647 16.9688 27.5066 17.1969C28.0484 17.4251 28.6045 17.5392 29.1749 17.5392C29.8023 17.5392 30.387 17.4251 30.9288 17.1969C31.4707 16.9688 31.9413 16.6551 32.3405 16.2558C32.7398 15.8566 33.0535 15.386 33.2817 14.8441C33.5098 14.3023 33.6239 13.7462 33.6239 13.1758C33.6239 12.5483 33.5098 11.9637 33.2817 11.4219C33.0535 10.88 32.7398 10.4094 32.3405 10.0102C31.9413 9.66793 31.4707 9.36849 30.9288 9.11182C30.387 8.85514 29.8023 8.72681 29.1749 8.72681ZM29.1749 16.0847C28.7757 16.0847 28.4049 15.9991 28.0627 15.828C27.7205 15.6569 27.4067 15.4573 27.1216 15.2291C26.8934 14.9439 26.6938 14.6302 26.5227 14.288C26.3515 13.9458 26.266 13.575 26.266 13.1758C26.266 12.7765 26.3515 12.3915 26.5227 12.0208C26.6938 11.65 26.8934 11.3506 27.1216 11.1224C27.4067 10.8372 27.7205 10.6233 28.0627 10.4807C28.4049 10.3381 28.7757 10.2668 29.1749 10.2668C29.5742 10.2668 29.9592 10.3381 30.3299 10.4807C30.7007 10.6233 31.0287 10.8372 31.3138 11.1224C31.542 11.3506 31.7416 11.65 31.9127 12.0208C32.0839 12.3915 32.1694 12.7765 32.1694 13.1758C32.1694 13.575 32.0839 13.9458 31.9127 14.288C31.7416 14.6302 31.542 14.9439 31.3138 15.2291C31.0287 15.4573 30.7007 15.6569 30.3299 15.828C29.9592 15.9991 29.5742 16.0847 29.1749 16.0847Z" fill="#D0D0D0"/>
</svg>
