<svg width="34" height="39" viewBox="0 0 34 39" fill="none" xmlns="http://www.w3.org/2000/svg">
<path d="M16.7692 0.935547C14.4306 0.935547 12.2489 1.14944 10.2241 1.57722C8.1992 2.00501 6.41678 2.58964 4.87675 3.33114C3.39375 4.0156 2.21023 4.8569 1.32613 5.85507C0.44204 6.85324 0 7.89417 0 8.9779V30.8805C0 31.9642 0.44204 33.0051 1.32613 34.0033C2.21023 35.0015 3.39375 35.8428 4.87675 36.5272C6.41678 37.2687 8.1992 37.8534 10.2241 38.2812C12.2489 38.7089 14.4306 38.9228 16.7692 38.9228C19.1077 38.9228 21.2894 38.7089 23.3143 38.2812C25.3391 37.8534 27.1215 37.2687 28.6616 36.5272C30.1446 35.8428 31.3281 35.0015 32.2122 34.0033C33.0963 33.0051 33.5383 31.9642 33.5383 30.8805V8.9779C33.5383 7.89417 33.0963 6.85324 32.2122 5.85507C31.3281 4.8569 30.1446 4.0156 28.6616 3.33114C27.1215 2.58964 25.3391 2.00501 23.3143 1.57722C21.2894 1.14944 19.1077 0.935547 16.7692 0.935547ZM16.7692 2.39002C19.0507 2.39002 21.1183 2.58965 22.972 2.98891C24.8258 3.38818 26.4371 3.90152 27.806 4.52894C29.1749 5.15636 30.2301 5.85507 30.9716 6.62509C31.7131 7.3951 32.0839 8.17937 32.0839 8.9779C32.0839 9.77644 31.7131 10.5607 30.9716 11.3307C30.2301 12.1007 29.1749 12.7994 27.806 13.4269C26.4371 14.0543 24.8258 14.5676 22.972 14.9669C21.1183 15.3662 19.0507 15.5658 16.7692 15.5658C14.4876 15.5658 12.42 15.3662 10.5663 14.9669C8.71254 14.5676 7.10123 14.0543 5.73232 13.4269C4.3634 12.7994 3.30821 12.1007 2.56671 11.3307C1.82521 10.5607 1.45447 9.77644 1.45447 8.9779C1.45447 8.17937 1.82521 7.3951 2.56671 6.62509C3.30821 5.85507 4.3634 5.15636 5.73232 4.52894C7.10123 3.90152 8.71254 3.38818 10.5663 2.98891C12.42 2.58965 14.4876 2.39002 16.7692 2.39002ZM32.0839 29.426V30.8805C32.0839 31.679 31.7131 32.4633 30.9716 33.2333C30.2301 34.0033 29.1749 34.702 27.806 35.3294C26.4371 35.9569 24.8258 36.4702 22.972 36.8695C21.1183 37.2687 19.0507 37.4684 16.7692 37.4684C14.4876 37.4684 12.42 37.2687 10.5663 36.8695C8.71254 36.4702 7.10123 35.9569 5.73232 35.3294C4.3634 34.702 3.30821 34.0033 2.56671 33.2333C1.82521 32.4633 1.45447 31.679 1.45447 30.8805V26.8593C2.08189 27.5438 2.92319 28.1854 3.9784 28.7843C5.0336 29.3832 6.21713 29.8823 7.52901 30.2816C8.84089 30.6808 10.2811 30.9946 11.8496 31.2227C13.4182 31.4509 15.058 31.5649 16.7692 31.5649C18.4803 31.5649 20.1201 31.4509 21.6887 31.2227C23.2572 30.9946 24.6974 30.6808 26.0093 30.2816C27.3212 29.8823 28.5047 29.3832 29.5599 28.7843C30.6151 28.1854 31.4564 27.5438 32.0839 26.8593V29.426ZM32.0839 23.6081C32.0839 24.3496 31.7131 25.1196 30.9716 25.9182C30.2301 26.7167 29.1749 27.4297 27.806 28.0571C26.4371 28.6845 24.8258 29.1836 22.972 29.5543C21.1183 29.9251 19.0507 30.1105 16.7692 30.1105C14.4876 30.1105 12.42 29.9251 10.5663 29.5543C8.71254 29.1836 7.10123 28.6845 5.73232 28.0571C4.3634 27.4297 3.30821 26.7167 2.56671 25.9182C1.82521 25.1196 1.45447 24.3496 1.45447 23.6081V19.587C2.08189 20.2714 2.92319 20.8988 3.9784 21.4692C5.0336 22.0396 6.21713 22.5529 7.52901 23.0092C8.84089 23.4085 10.2811 23.7222 11.8496 23.9504C13.4182 24.1785 15.058 24.2926 16.7692 24.2926C18.4803 24.2926 20.1201 24.1785 21.6887 23.9504C23.2572 23.7222 24.6974 23.4085 26.0093 23.0092C27.3212 22.5529 28.5047 22.0396 29.5599 21.4692C30.6151 20.8988 31.4564 20.2714 32.0839 19.587V23.6081ZM32.0839 16.2502C32.0839 17.0488 31.7131 17.833 30.9716 18.6031C30.2301 19.3731 29.1749 20.0718 27.806 20.6992C26.4371 21.3266 24.8258 21.84 22.972 22.2392C21.1183 22.6385 19.0507 22.8381 16.7692 22.8381C14.4876 22.8381 12.42 22.6385 10.5663 22.2392C8.71254 21.84 7.10123 21.3266 5.73232 20.6992C4.3634 20.0718 3.30821 19.3731 2.56671 18.6031C1.82521 17.833 1.45447 17.0488 1.45447 16.2502V12.2291C2.08189 12.9706 2.92319 13.6265 3.9784 14.1969C5.0336 14.7673 6.21713 15.2521 7.52901 15.6513C8.84089 16.1076 10.2811 16.4499 11.8496 16.678C13.4182 16.9062 15.058 17.0203 16.7692 17.0203C18.4803 17.0203 20.1201 16.9062 21.6887 16.678C23.2572 16.4499 24.6974 16.1076 26.0093 15.6513C27.3212 15.2521 28.5047 14.7673 29.5599 14.1969C30.6151 13.6265 31.4564 12.9706 32.0839 12.2291V16.2502Z" fill="#D0D0D0"/>
</svg>
