<svg width="26" height="26" viewBox="0 0 26 26" fill="none" xmlns="http://www.w3.org/2000/svg">
<path d="M12.9996 2.59961C7.26508 2.59961 2.59961 7.26509 2.59961 12.9996C2.59961 18.7341 7.26508 23.3996 12.9996 23.3996C18.7341 23.3996 23.3996 18.7341 23.3996 12.9996C23.3996 7.26509 18.7341 2.59961 12.9996 2.59961ZM12.9996 4.15961C13.3805 4.15961 13.7673 4.31816 14.192 4.70906C14.6166 5.09996 15.0473 5.72091 15.4158 6.52297C15.7122 7.16808 15.9308 7.99527 16.1308 8.83961H9.86844C10.0684 7.99527 10.287 7.16808 10.5834 6.52297C10.9519 5.72091 11.3826 5.09996 11.8073 4.70906C12.2319 4.31816 12.6187 4.15961 12.9996 4.15961ZM9.76383 4.77711C9.54877 5.11504 9.34723 5.47671 9.16563 5.87195C8.7699 6.73324 8.47297 7.75272 8.24242 8.83961H5.19758C6.18107 6.99461 7.79979 5.54825 9.76383 4.77711ZM16.2354 4.77711C18.1994 5.54825 19.8181 6.99461 20.8016 8.83961H17.7568C17.5262 7.75272 17.2293 6.73324 16.8336 5.87195C16.652 5.47671 16.4505 5.11504 16.2354 4.77711ZM4.54859 10.3996H8.0393C7.93243 11.2484 7.79961 12.0802 7.79961 12.9996C7.79961 13.919 7.93243 14.7509 8.0393 15.5996H4.54859C4.29706 14.7778 4.15961 13.9051 4.15961 12.9996C4.15961 12.0942 4.29706 11.2214 4.54859 10.3996ZM9.60234 10.3996H16.3969C16.5128 11.2386 16.6396 12.0743 16.6396 12.9996C16.6396 13.9249 16.5128 14.7606 16.3969 15.5996H9.60234C9.48638 14.7606 9.35961 13.9249 9.35961 12.9996C9.35961 12.0743 9.48638 11.2386 9.60234 10.3996ZM17.9599 10.3996H21.4506C21.7022 11.2214 21.8396 12.0942 21.8396 12.9996C21.8396 13.9051 21.7022 14.7778 21.4506 15.5996H17.9599C18.0668 14.7509 18.1996 13.919 18.1996 12.9996C18.1996 12.0802 18.0668 11.2484 17.9599 10.3996ZM5.19758 17.1596H8.24242C8.47297 18.2465 8.7699 19.266 9.16563 20.1273C9.34723 20.5225 9.54877 20.8842 9.76383 21.2221C7.79979 20.451 6.18107 19.0046 5.19758 17.1596ZM9.86844 17.1596H16.1308C15.9308 18.004 15.7122 18.8311 15.4158 19.4763C15.0473 20.2783 14.6166 20.8993 14.192 21.2902C13.7673 21.6811 13.3805 21.8396 12.9996 21.8396C12.6187 21.8396 12.2319 21.6811 11.8073 21.2902C11.3826 20.8993 10.9519 20.2783 10.5834 19.4763C10.287 18.8311 10.0684 18.004 9.86844 17.1596ZM17.7568 17.1596H20.8016C19.8181 19.0046 18.1994 20.451 16.2354 21.2221C16.4505 20.8842 16.652 20.5225 16.8336 20.1273C17.2293 19.266 17.5262 18.2465 17.7568 17.1596Z" fill="#858585"/>
</svg>
