<svg width="26" height="26" viewBox="0 0 26 26" fill="none" xmlns="http://www.w3.org/2000/svg">
<path d="M13.9493 3C18.3857 3 22 6.61429 22 11.0507C22 15.4871 18.3857 19.1014 13.9493 19.1014C12.0303 19.1014 10.2661 18.4235 8.88074 17.2969L3.43372 22.744C3.35698 22.8239 3.26506 22.8877 3.16335 22.9316C3.06164 22.9756 2.95218 22.9988 2.84138 23C2.73058 23.0011 2.62067 22.9801 2.51809 22.9382C2.4155 22.8963 2.3223 22.8344 2.24395 22.756C2.1656 22.6777 2.10367 22.5845 2.06179 22.4819C2.01991 22.3793 1.99892 22.2694 2.00004 22.1586C2.00117 22.0478 2.02439 21.9384 2.06835 21.8366C2.11231 21.7349 2.17612 21.643 2.25605 21.5663L7.70307 16.1193C6.5765 14.7339 5.8986 12.9697 5.8986 11.0507C5.8986 6.61429 9.51288 3 13.9493 3ZM13.9493 4.66566C10.4131 4.66566 7.56426 7.51448 7.56426 11.0507C7.56426 12.7733 8.24374 14.3297 9.34596 15.4762C9.4139 15.5261 9.47386 15.5861 9.5238 15.654C10.6703 16.7563 12.2267 17.4357 13.9493 17.4357C17.4855 17.4357 20.3343 14.5869 20.3343 11.0507C20.3343 7.51448 17.4855 4.66566 13.9493 4.66566Z" fill="#858585"/>
</svg>
