<svg width="128" height="57" viewBox="0 0 128 57" fill="none" xmlns="http://www.w3.org/2000/svg">
<path d="M54.2451 51.3791C54.2451 53.382 52.6092 55.0133 50.6007 55.0133H3.64442C1.63594 55.0133 0 53.3901 0 51.3791V3.6261C0 1.62326 1.63594 0 3.64442 0H50.6007C52.6092 0 54.2451 1.62326 54.2451 3.6261V51.3791V51.3791Z" fill="#C10606"/>
<path d="M51.7182 24.0995C51.6696 23.4131 50.8678 23.1385 49.3129 23.3L48.5273 23.3565C48.5597 22.0079 48.2034 20.2715 47.4583 18.1476C46.6403 15.8217 45.7899 14.4649 44.9072 14.0934C44.397 13.8673 43.9353 13.7785 43.5142 13.8027C42.8582 13.8512 42.5748 14.4165 42.6557 15.4987C42.7205 16.4112 42.7205 17.235 42.6719 18.0022C42.6153 17.9457 42.5586 17.9134 42.4857 17.9214C42.5181 17.9214 42.0807 18.2122 41.1737 18.7936C40.2747 19.3832 39.6187 19.6901 39.23 19.7143C39.0356 19.7304 38.8089 19.7062 38.5335 19.6335C38.3877 17.9941 37.6831 17.2188 36.4035 17.3157C34.9134 17.4207 33.3098 18.3818 31.6091 20.2069C30.3376 21.596 29.5682 22.9851 29.2686 24.366C28.7665 24.6972 28.0538 25.2867 27.1305 26.1347C26.2154 27.0311 25.284 27.9195 24.3284 28.8159C26.5069 24.9233 27.5031 21.806 27.333 19.4639C27.2034 17.6469 26.4826 16.7827 25.1868 16.8796C23.6076 16.9927 22.4738 18.1314 21.7854 20.2715C20.9674 20.7884 20.3681 21.0791 19.9956 21.1034C19.8012 21.1114 19.5744 21.0872 19.2991 21.0226C19.1452 19.3832 18.4406 18.6079 17.1691 18.6967C15.6709 18.8017 14.0754 19.7628 12.3747 21.5879C10.9655 23.1304 10.1638 24.6648 9.95318 26.1993C9.64543 26.7 9.2243 27.4187 8.67359 28.3798C7.52357 30.3745 6.60842 31.4002 5.92813 31.4486C5.30453 31.4971 4.8753 30.6734 4.61614 28.9936L4.59184 28.6705C7.18343 22.4682 8.87606 18.3172 9.67783 16.2093C12.1155 9.71628 13.1846 5.51679 12.8849 3.61894C12.7553 2.75482 12.3342 2.35102 11.6134 2.40755C10.5039 2.48831 9.44297 3.13439 8.42253 4.3377C7.06195 5.92059 5.69327 9.88587 4.30029 16.2416C2.91541 22.5974 2.42949 27.0634 2.84252 29.6477C3.15837 31.7151 3.92775 32.7085 5.16685 32.6197C6.07391 32.555 7.29681 31.6586 8.81937 29.9465C9.32959 29.3812 9.72642 28.8563 10.0504 28.3556C10.2447 29.0743 10.593 29.6639 11.1194 30.1C11.8483 30.6976 12.6743 30.9641 13.5814 30.9076C15.0797 30.7945 16.3431 29.9869 17.3797 28.4767C18.3272 27.1038 18.9346 25.3917 19.21 23.3242C19.7769 23.0981 20.4815 22.7428 21.2833 22.2824C21.0403 23.7684 20.9755 25.4159 21.1132 27.233C21.1942 28.3556 21.3319 29.5266 21.51 30.7299C19.4935 32.652 17.3716 35.4624 15.1526 39.145C12.4962 43.5545 11.2571 46.9868 11.4352 49.458C11.5972 51.7112 12.6905 52.7611 14.7071 52.6157C17.1853 52.438 19.3315 49.6034 21.1537 44.1279C21.5505 42.8761 22.571 38.6524 24.2069 31.4486C25.4784 30.0515 26.434 28.9451 27.0576 28.1133C27.8918 27.3945 28.5721 26.813 29.1552 26.3204C29.2767 27.3622 29.6654 28.1698 30.3457 28.727C31.0746 29.3247 31.9007 29.5912 32.8077 29.5266C34.2979 29.4216 35.5694 28.614 36.606 27.1038C37.5536 25.7309 38.161 24.0107 38.4444 21.9433C39.1085 21.6767 39.9508 21.2487 40.9469 20.6592C41.6515 20.2069 42.1617 19.8193 42.4776 19.4882C42.267 20.5703 41.9107 21.4748 41.4085 22.1855C41.3195 22.3228 41.2628 22.4359 41.2385 22.5247C41.2547 22.7347 41.4895 22.8316 41.9431 22.7993C42.5262 22.7589 43.1174 21.9998 43.6924 20.5219C44.0649 19.4074 44.4456 18.2929 44.8262 17.1784C46.0086 19.4397 46.6241 21.4183 46.6808 23.1062L46.7132 23.6311C45.0692 23.9622 43.6276 24.5033 42.3642 25.2463C40.4853 26.385 39.6025 27.7337 39.7159 29.2843C39.7645 29.9788 40.0804 30.5038 40.6635 30.851C41.1089 31.1256 41.6029 31.2387 42.1617 31.2064C42.4857 31.1821 42.8096 31.0933 43.1255 30.9399C46.2354 29.2358 48.009 27.023 48.4301 24.2934C48.7946 24.2691 49.3129 24.3257 50.0094 24.471C50.7059 24.6164 51.208 24.681 51.4995 24.6568C51.6615 24.6568 51.7263 24.471 51.702 24.1238L51.7182 24.0995ZM7.05385 15.0626C8.5926 9.16711 9.91269 6.18709 11.0222 6.09826C11.1194 6.09826 11.1842 6.19517 11.2409 6.40514C11.4191 7.53577 10.5282 10.8308 8.57641 16.3224C7.24012 19.9808 5.92813 23.3404 4.64854 26.385C5.05347 23.3969 5.86334 19.6255 7.06195 15.0545L7.05385 15.0626ZM17.0153 27.0634C16.4321 27.9356 15.6385 28.404 14.6261 28.4767C14.0349 28.5171 13.468 28.3879 12.9173 28.081C12.2694 27.6933 11.9131 27.128 11.8645 26.3931C11.7916 25.3998 12.2208 24.2368 13.1765 22.9043C14.1321 21.5718 15.0149 20.8772 15.8247 20.8207H15.9219C15.9381 21.0791 15.9543 21.3376 15.9786 21.596C16.0434 22.4601 16.6103 23.09 17.6874 23.4938L17.7603 23.8169C17.8575 25.109 17.6065 26.1912 17.0234 27.0634H17.0153ZM19.8822 43.1668C18.2463 48.1497 16.8452 50.6936 15.6709 50.7744C15.2821 50.7986 14.942 50.5644 14.6423 50.0637C14.3427 49.563 14.1726 49.0542 14.1402 48.5373C14.0025 46.6314 14.9825 43.926 17.08 40.4291C18.7079 38.0467 20.3195 35.6724 21.9069 33.29C22.0769 35.107 21.3967 38.3939 19.8741 43.1588L19.8822 43.1668ZM23.2513 26.6838C22.9597 26.7081 22.7977 26.5223 22.7734 26.1347C22.7086 25.2705 22.9759 23.9138 23.559 22.0644C24.1421 20.215 24.7171 19.2782 25.2678 19.2297C25.6242 19.2055 25.8428 19.6093 25.8995 20.425C25.9724 21.5072 25.7619 22.767 25.2354 24.1964C24.6685 25.8036 24.0044 26.6354 23.2594 26.6838H23.2513ZM36.2416 25.6824C35.6585 26.5546 34.8648 27.0149 33.8525 27.0957C33.2613 27.1361 32.6862 27.0069 32.1436 26.7C31.4876 26.3123 31.1394 25.7551 31.0827 25.0202C31.0098 24.0268 31.4471 22.8639 32.4028 21.5314C33.3503 20.1989 34.2331 19.5043 35.0511 19.4478H35.1483C35.1725 19.6981 35.1887 19.9647 35.2049 20.2231C35.2697 21.0872 35.8285 21.7252 36.9057 22.1209L36.9786 22.444C37.0676 23.7442 36.8247 24.8264 36.2497 25.6905L36.2416 25.6824ZM45.223 27.9679C44.4456 28.937 43.5304 29.462 42.4938 29.5427C41.7082 29.5993 41.2952 29.3004 41.2466 28.6544C41.1818 27.661 41.8864 26.7161 43.4008 25.8278C44.4942 25.1817 45.5956 24.7375 46.6808 24.4791C46.4864 25.8439 46.0005 27.0069 45.2149 27.976L45.223 27.9679Z" fill="white"/>
<path d="M60.7402 52.8968V42.3496H61.5096V47.1225C62.279 46.3391 63.1455 45.9434 64.1255 45.9434C65.1054 45.9434 65.8424 46.2664 66.4417 46.9287C67.0491 47.5828 67.3407 48.4308 67.3407 49.4645C67.3407 50.6678 66.9762 51.6289 66.2393 52.3557C65.5023 53.0745 64.5223 53.446 63.2994 53.446C62.4977 53.446 61.6473 53.2602 60.7402 52.8968V52.8968ZM61.5096 47.9866V52.3557C62.1089 52.5818 62.7001 52.6949 63.2832 52.6949C64.2146 52.6949 64.984 52.3961 65.5995 51.7985C66.215 51.2008 66.5146 50.4417 66.5146 49.521C66.5146 48.6731 66.2797 47.9705 65.81 47.4213C65.3322 46.8721 64.741 46.5976 64.0283 46.5976C63.1698 46.5976 62.3276 47.066 61.5096 47.9947V47.9866Z" fill="#5D5E5E"/>
<path d="M69.8517 42.3496V43.666H69.0742V42.3496H69.8517ZM69.8517 46.0888V53.3006H69.0742V46.0888H69.8517Z" fill="#5D5E5E"/>
<path d="M75.3343 45.9512C76.3791 45.9512 77.2537 46.3065 77.9583 47.0253C78.6629 47.736 79.0111 48.6324 79.0111 49.7065C79.0111 50.7806 78.6629 51.6609 77.9583 52.3796C77.2618 53.0903 76.3872 53.4537 75.3343 53.4537C74.2815 53.4537 73.4068 53.0903 72.7022 52.3796C71.9977 51.6689 71.6494 50.7725 71.6494 49.7065C71.6494 48.6405 72.0058 47.736 72.7022 47.0253C73.4068 46.3065 74.2815 45.9512 75.3343 45.9512ZM75.3343 52.6946C76.1442 52.6946 76.8245 52.4119 77.3671 51.8466C77.9178 51.2813 78.1851 50.5706 78.1851 49.7146C78.1851 48.8585 77.9097 48.1478 77.3671 47.5744C76.8164 47.001 76.1442 46.7103 75.3343 46.7103C74.5244 46.7103 73.8361 47.001 73.2853 47.5664C72.7346 48.1398 72.4593 48.8504 72.4593 49.7146C72.4593 50.5787 72.7346 51.2894 73.2853 51.8466C73.8361 52.4119 74.5083 52.6946 75.3343 52.6946Z" fill="#5D5E5E"/>
<path d="M84.6799 46.5571V47.389C83.9429 46.8963 83.2788 46.646 82.6957 46.646C82.2584 46.646 81.8939 46.7671 81.5943 47.0013C81.2946 47.2274 81.1489 47.5182 81.1489 47.8654C81.1489 48.1077 81.2379 48.3419 81.4161 48.5438C81.6024 48.7538 82.0964 49.0122 82.9225 49.3272C83.7404 49.6502 84.275 49.9652 84.526 50.3124C84.7771 50.6597 84.9067 51.0312 84.9067 51.4512C84.9067 52.0084 84.6799 52.4849 84.2264 52.8644C83.7728 53.2521 83.2059 53.4459 82.5337 53.4459C81.8049 53.4459 81.0841 53.2279 80.3633 52.7756V52.0245C81.2217 52.4687 81.9749 52.6868 82.639 52.6868C83.0763 52.6868 83.4408 52.5656 83.7323 52.3314C84.0158 52.0972 84.1616 51.7903 84.1616 51.435C84.1616 51.1846 84.0725 50.9504 83.8862 50.7405C83.7 50.5224 83.1978 50.264 82.3718 49.941C81.5538 49.6098 81.0193 49.2949 80.7844 48.9718C80.5415 48.6569 80.4119 48.3096 80.4119 47.922C80.4119 47.3728 80.6467 46.9044 81.0922 46.5248C81.5457 46.1372 82.1045 45.9434 82.7524 45.9434C83.3436 45.9434 83.9915 46.1453 84.688 46.5491L84.6799 46.5571Z" fill="#5D5E5E"/>
<path d="M92.22 46.0879L86.8019 56.9904H86.0164L88.5513 51.8945L85.498 46.0879H86.316L88.9319 51.1273L91.4344 46.0879H92.2281H92.22Z" fill="#5D5E5E"/>
<path d="M97.0868 46.5571V47.389C96.3579 46.8963 95.6939 46.646 95.1107 46.646C94.6815 46.646 94.309 46.7671 94.0174 47.0013C93.7178 47.2274 93.572 47.5182 93.572 47.8654C93.572 48.1077 93.653 48.3419 93.8393 48.5438C94.0255 48.7538 94.5195 49.0122 95.3375 49.3272C96.1555 49.6502 96.69 49.9652 96.9491 50.3124C97.2002 50.6597 97.3217 51.0312 97.3217 51.4512C97.3217 52.0084 97.0868 52.4849 96.6333 52.8644C96.1798 53.2521 95.621 53.4459 94.9488 53.4459C94.2199 53.4459 93.491 53.2279 92.7783 52.7756V52.0245C93.6287 52.4687 94.39 52.6868 95.046 52.6868C95.4914 52.6868 95.8558 52.5656 96.1393 52.3314C96.4308 52.0972 96.5685 51.7903 96.5685 51.435C96.5685 51.1846 96.4713 50.9504 96.2932 50.7405C96.1069 50.5224 95.5967 50.264 94.7868 49.941C93.9607 49.6098 93.4343 49.2949 93.1914 48.9718C92.9484 48.6569 92.8269 48.3096 92.8269 47.922C92.8269 47.3728 93.0537 46.9044 93.5153 46.5248C93.9607 46.1372 94.5195 45.9434 95.1674 45.9434C95.7586 45.9434 96.3984 46.1453 97.0949 46.5491L97.0868 46.5571Z" fill="#5D5E5E"/>
<path d="M100.222 43.6975V46.088H102.247V46.7099H100.222V51.0063C100.222 51.6927 100.279 52.145 100.392 52.363C100.505 52.5811 100.805 52.6861 101.307 52.6861C101.68 52.6861 102.125 52.5649 102.627 52.3307V53.0656C102.117 53.316 101.623 53.4371 101.137 53.4371C100.651 53.4371 100.262 53.2998 99.9384 53.0252C99.6145 52.7507 99.4606 52.3792 99.4606 51.8946V46.7018H97.5088V46.0799H99.4606V44.3598L99.987 43.6895H100.23L100.222 43.6975Z" fill="#5D5E5E"/>
<path d="M109.826 49.4319H104.133C104.117 49.5611 104.1 49.6823 104.1 49.8115C104.1 50.6191 104.392 51.2974 104.967 51.8628C105.542 52.42 106.23 52.6946 107.008 52.6946C107.923 52.6946 108.83 52.3392 109.697 51.6205V52.4927C108.862 53.1307 107.939 53.4537 106.911 53.4537C105.882 53.4537 105.007 53.0903 104.327 52.3715C103.647 51.6528 103.307 50.7321 103.307 49.6176C103.307 48.5032 103.622 47.6875 104.246 46.993C104.878 46.2984 105.663 45.9512 106.619 45.9512C107.518 45.9512 108.271 46.2661 108.895 46.888C109.518 47.5098 109.818 48.3578 109.818 49.4319H109.826ZM104.23 48.8181H108.911C108.644 47.4129 107.882 46.7022 106.619 46.7022C106.028 46.7022 105.518 46.888 105.08 47.2595C104.659 47.631 104.359 48.1478 104.222 48.8181H104.23Z" fill="#5D5E5E"/>
<path d="M112.118 46.0885V47.3564H112.142C112.734 46.4196 113.503 45.9512 114.45 45.9512C115.56 45.9512 116.337 46.5326 116.791 47.6794C117.471 46.5246 118.305 45.9512 119.302 45.9512C120.047 45.9512 120.654 46.2177 121.116 46.7507C121.569 47.2837 121.812 47.9863 121.812 48.8747V53.3003H121.035V49.2138C121.035 48.4386 120.873 47.8248 120.541 47.3806C120.209 46.9364 119.747 46.7103 119.148 46.7103C118.702 46.7103 118.322 46.8476 117.99 47.1141C117.658 47.3806 117.317 47.8086 116.969 48.3982V53.3084H116.192V49.1977C116.192 48.3982 116.022 47.7844 115.673 47.3483C115.333 46.9203 114.872 46.7022 114.297 46.7022C113.454 46.7022 112.734 47.2191 112.118 48.2447V53.3003H111.349V46.0885H112.118Z" fill="#5D5E5E"/>
<path d="M127.773 46.5571V47.389C127.036 46.8963 126.38 46.646 125.789 46.646C125.36 46.646 124.987 46.7671 124.687 47.0013C124.388 47.2274 124.242 47.5182 124.242 47.8654C124.242 48.1077 124.323 48.3419 124.509 48.5438C124.687 48.7538 125.198 49.0122 126.007 49.3272C126.834 49.6502 127.368 49.9652 127.619 50.3124C127.87 50.6597 127.992 51.0312 127.992 51.4512C127.992 52.0084 127.765 52.4849 127.311 52.8644C126.85 53.2521 126.291 53.4459 125.619 53.4459C124.89 53.4459 124.169 53.2279 123.448 52.7756V52.0245C124.299 52.4687 125.06 52.6868 125.724 52.6868C126.169 52.6868 126.534 52.5656 126.817 52.3314C127.101 52.0972 127.247 51.7903 127.247 51.435C127.247 51.1846 127.149 50.9504 126.971 50.7405C126.785 50.5224 126.283 50.264 125.457 49.941C124.639 49.6098 124.112 49.2949 123.861 48.9718C123.626 48.6569 123.497 48.3096 123.497 47.922C123.497 47.3728 123.724 46.9044 124.177 46.5248C124.631 46.1372 125.173 45.9434 125.829 45.9434C126.42 45.9434 127.068 46.1453 127.765 46.5491L127.773 46.5571Z" fill="#5D5E5E"/>
</svg>
