<svg width="74" height="74" viewBox="0 0 74 74" fill="none" xmlns="http://www.w3.org/2000/svg">
<circle cx="37" cy="37" r="37" fill="#516BC0"/>
<g clip-path="url(#clip0_354_1523)">
<path d="M41.3317 26.6585L41.9951 25.9951L37 21L32.0049 25.9951L32.6683 26.6585L36.5317 22.7951V32.317H37.4683V22.7951L41.3317 26.6585ZM48.0048 32.0048L47.3414 32.6682L51.2048 36.5316H41.6829V37.4682H51.2048L47.3414 41.3315L48.0048 41.9949L52.9999 36.9999L48.0048 32.0048ZM32.3171 36.5316H22.7952L26.6586 32.6682L25.9952 32.0048L21.0001 36.9999L25.9952 41.9949L26.6586 41.3315L22.7952 37.4682H32.3171V36.5316ZM37.4683 51.2046V41.6828H36.5317V51.2046L32.6683 47.3412L32.0049 48.0046L37 52.9997L41.9951 48.0046L41.3317 47.3412L37.4683 51.2046Z" fill="white"/>
</g>
<defs>
<clipPath id="clip0_354_1523">
<rect width="22.6272" height="22.6272" fill="white" transform="translate(37 21) rotate(45)"/>
</clipPath>
</defs>
</svg>
