<svg width="74" height="74" viewBox="0 0 74 74" fill="none" xmlns="http://www.w3.org/2000/svg">
<circle cx="37" cy="37" r="37" fill="#516BC0"/>
<path d="M52.4694 22.4643C52.3367 22.2874 52.1599 22.1658 51.9388 22.0995C51.7177 22.0332 51.4966 22 51.2755 22C51.0544 22 50.8444 22.0332 50.6454 22.0995C50.4464 22.1658 50.2585 22.2874 50.0816 22.4643L45.1071 27.4388V26.5102H27V48H48.4898V29.8929H47.4286L52.4694 24.852C52.6463 24.7194 52.7789 24.5425 52.8673 24.3214C52.9558 24.1003 53 23.8793 53 23.6582C53 23.4371 52.9558 23.227 52.8673 23.0281C52.7789 22.8291 52.6463 22.6412 52.4694 22.4643ZM47.3622 46.8724H28.1276V27.6378H44.9082L36.0867 36.5255V38.9796H38.4082L47.3622 30.0255V46.8724ZM51.6735 24.0561L37.9439 37.852H37.2143V36.9898L50.8776 23.2602C50.966 23.216 51.0434 23.1828 51.1097 23.1607C51.176 23.1386 51.2313 23.1276 51.2755 23.1276C51.3197 23.1276 51.3861 23.1386 51.4745 23.1607C51.5629 23.1828 51.6293 23.216 51.6735 23.2602C51.7619 23.3486 51.8172 23.426 51.8393 23.4923C51.8614 23.5587 51.8724 23.6139 51.8724 23.6582C51.8724 23.7024 51.8614 23.7687 51.8393 23.8571C51.8172 23.9456 51.7619 24.0119 51.6735 24.0561Z" fill="white"/>
</svg>
