<svg width="74" height="74" viewBox="0 0 74 74" fill="none" xmlns="http://www.w3.org/2000/svg">
<circle cx="37" cy="37" r="37" fill="#516BC0"/>
<path d="M36.5 23L25 25.1127C25 25.1127 25 27.507 25 32.2958C25 37.0845 25 40.0892 25 41.3099C25 42.2958 25.2248 43.3286 25.6744 44.4085C26.124 45.4883 26.822 46.5446 27.7685 47.5775C28.6677 48.6573 29.8508 49.6667 31.3179 50.6056C32.785 51.5446 34.5123 52.3427 36.5 53C38.535 52.3427 40.2742 51.5446 41.7176 50.6056C43.161 49.6667 44.356 48.6573 45.3025 47.5775C46.249 46.5446 46.9352 45.4883 47.3611 44.4085C47.787 43.3286 48 42.2958 48 41.3099C48 40.0892 48 37.0845 48 32.2958C48 27.507 48 25.1127 48 25.1127L36.5 23ZM46.7932 41.3099C46.7932 42.1549 46.5921 43.0469 46.1898 43.9859C45.7876 44.9249 45.1605 45.8638 44.3086 46.8028C43.4568 47.7418 42.392 48.6455 41.1142 49.5141C39.8364 50.3826 38.2984 51.1221 36.5 51.7324C34.749 51.1221 33.2227 50.3826 31.9213 49.5141C30.6198 48.6455 29.5432 47.7418 28.6914 46.8028C27.8395 45.8638 27.2125 44.9249 26.8102 43.9859C26.4079 43.0469 26.2068 42.1549 26.2068 41.3099V26.169L36.5 24.1972L46.7932 26.0986V41.3099ZM33.0216 32.0845L32.1698 32.9296L35.7901 36.5915L32.1698 40.1831L33.0216 41.0282L36.642 37.3662L40.2623 41.0282L41.1142 40.1831L37.4938 36.5915L41.1142 32.9296L40.2623 32.0845L36.642 35.7465L33.0216 32.0845Z" fill="white"/>
</svg>
