<svg width="16" height="17" viewBox="0 0 16 17" fill="none" xmlns="http://www.w3.org/2000/svg">
<path d="M6.83289 15.3968C6.37355 15.3968 5.99955 15.0232 5.99955 14.5635V8.73017L4.51622 8.73117C4.06055 8.73117 3.68655 8.36117 3.68255 7.90584L3.67289 6.90484C3.67089 6.6805 3.75622 6.4695 3.91422 6.3105C4.07155 6.15117 4.28189 6.0635 4.50622 6.0635H5.99955V4.5635C5.99955 2.31484 7.14689 1.07617 9.22989 1.07617C10.0539 1.07617 10.7732 1.13451 10.7799 1.13517C11.1016 1.16384 11.3436 1.42851 11.3436 1.75084V3.27417C11.3436 3.61484 11.0662 3.89217 10.7256 3.89217H9.75622C9.35055 3.89217 9.02022 4.22217 9.02022 4.62817L9.00155 6.0635H10.4809C10.7186 6.0635 10.9452 6.1655 11.1032 6.34284C11.2612 6.52017 11.3362 6.75717 11.3086 6.99317L11.1922 7.99317C11.1436 8.4135 10.7876 8.73017 10.3649 8.73017H8.99955V14.5635C8.99955 15.0232 8.62555 15.3968 8.16622 15.3968H6.83289Z" fill="#333333"/>
</svg>
