<svg width="16" height="17" viewBox="0 0 16 17" fill="none" xmlns="http://www.w3.org/2000/svg">
<path d="M7.9528 2.89844C5.83523 2.89844 3.86777 3.04931 2.74512 3.28385C2.74273 3.28449 2.74034 3.28514 2.73796 3.28581C1.89215 3.47534 1.09572 4.08118 0.92806 5.02995C0.927838 5.03125 0.927621 5.03255 0.927409 5.03385C0.798604 5.79853 0.666992 6.79534 0.666992 8.23177C0.666992 9.66549 0.799056 10.6359 0.961914 11.4408C1.13368 12.3615 1.91173 12.9857 2.77051 13.1777C2.77462 13.1789 2.77874 13.18 2.78288 13.181C3.95456 13.4119 5.86648 13.5651 7.98405 13.5651C10.1016 13.5651 12.0146 13.4119 13.1865 13.181C13.1907 13.18 13.1948 13.1789 13.1989 13.1777C14.0447 12.9882 14.8411 12.3824 15.0088 11.4336C15.0092 11.4312 15.0097 11.4288 15.0101 11.4264C15.1369 10.6462 15.3013 9.65031 15.3337 8.21159C15.3337 8.2079 15.3337 8.20421 15.3337 8.20052C15.3337 6.761 15.1689 5.758 15.0081 4.96354C14.8377 4.0408 14.0588 3.41493 13.1989 3.22266C13.1858 3.21974 13.1725 3.21735 13.1592 3.21549C12.0158 3.05475 10.0707 2.89844 7.9528 2.89844ZM6.71908 5.73242C6.84254 5.72987 6.97017 5.75907 7.09017 5.82682L9.95801 7.44727C10.4417 7.7206 10.4417 8.41026 9.95801 8.68359L7.09017 10.304C6.6105 10.5747 6.01269 10.2319 6.01269 9.68555V6.44466C6.01269 6.03491 6.34867 5.74008 6.71908 5.73242Z" fill="#333333"/>
</svg>
