<svg width="40" height="40" viewBox="0 0 40 40" fill="none" xmlns="http://www.w3.org/2000/svg">
<path d="M20 13C20.9147 13 21.54 13.0047 21.876 13.014C22.156 13.014 22.492 13.0233 22.884 13.042C23.5373 13.07 24.102 13.1773 24.578 13.364C25.054 13.5507 25.4717 13.8213 25.831 14.176C26.1903 14.5307 26.461 14.946 26.643 15.422C26.825 15.898 26.93 16.4627 26.958 17.116C26.9767 17.5173 26.986 17.8533 26.986 18.124C26.9953 18.4787 27 19.1087 27 20.014C27 20.9193 26.9953 21.54 26.986 21.876C26.986 22.156 26.9767 22.492 26.958 22.884C26.93 23.5373 26.825 24.102 26.643 24.578C26.461 25.054 26.1903 25.4717 25.831 25.831C25.4717 26.1903 25.054 26.461 24.578 26.643C24.102 26.825 23.5373 26.93 22.884 26.958C22.4827 26.9767 22.1467 26.986 21.876 26.986C21.5213 26.9953 20.8913 27 19.986 27C19.0807 27 18.46 26.9953 18.124 26.986C17.844 26.986 17.508 26.9767 17.116 26.958C16.4627 26.93 15.898 26.825 15.422 26.643C14.946 26.461 14.5283 26.1903 14.169 25.831C13.8097 25.4717 13.539 25.054 13.357 24.578C13.175 24.102 13.07 23.5373 13.042 22.884C13.0233 22.4827 13.014 22.1467 13.014 21.876C13.0047 21.5213 13 20.8913 13 19.986C13 19.0807 13.0047 18.46 13.014 18.124C13.014 17.844 13.0233 17.508 13.042 17.116C13.07 16.4627 13.175 15.898 13.357 15.422C13.539 14.946 13.8097 14.5283 14.169 14.169C14.5283 13.8097 14.946 13.539 15.422 13.357C15.898 13.175 16.4627 13.07 17.116 13.042C17.5173 13.0233 17.8533 13.014 18.124 13.014C18.4787 13.0047 19.104 13 20 13ZM20 16.5C19.3653 16.5 18.7797 16.6563 18.243 16.969C17.7063 17.2817 17.2817 17.7063 16.969 18.243C16.6563 18.7797 16.5 19.3653 16.5 20C16.5 20.6347 16.6563 21.2203 16.969 21.757C17.2817 22.2937 17.7063 22.7183 18.243 23.031C18.7797 23.3437 19.3653 23.5 20 23.5C20.6347 23.5 21.2203 23.3437 21.757 23.031C22.2937 22.7183 22.7183 22.2937 23.031 21.757C23.3437 21.2203 23.5 20.6347 23.5 20C23.5 19.3653 23.3437 18.7797 23.031 18.243C22.7183 17.7063 22.2937 17.2817 21.757 16.969C21.2203 16.6563 20.6347 16.5 20 16.5ZM24.55 16.318C24.55 16.0847 24.4637 15.8817 24.291 15.709C24.1183 15.5363 23.913 15.45 23.675 15.45C23.437 15.45 23.2317 15.5363 23.059 15.709C22.8863 15.8817 22.8 16.087 22.8 16.325C22.8 16.563 22.8863 16.7683 23.059 16.941C23.2317 17.1137 23.437 17.2 23.675 17.2C23.913 17.2 24.1183 17.1137 24.291 16.941C24.4637 16.7683 24.55 16.5607 24.55 16.318ZM20 17.9C20.3827 17.9 20.735 17.9933 21.057 18.18C21.379 18.3667 21.6333 18.621 21.82 18.943C22.0067 19.265 22.1 19.6173 22.1 20C22.1 20.3827 22.0067 20.735 21.82 21.057C21.6333 21.379 21.379 21.6333 21.057 21.82C20.735 22.0067 20.3827 22.1 20 22.1C19.6173 22.1 19.265 22.0067 18.943 21.82C18.621 21.6333 18.3667 21.379 18.18 21.057C17.9933 20.735 17.9 20.3827 17.9 20C17.9 19.6173 17.9933 19.265 18.18 18.943C18.3667 18.621 18.621 18.3667 18.943 18.18C19.265 17.9933 19.6173 17.9 20 17.9Z" fill="#333333"/>
</svg>
