<svg width="14" height="15" viewBox="0 0 14 15" fill="none" xmlns="http://www.w3.org/2000/svg">
<path d="M1.59091 0.0644531C1.16897 0.0644531 0.76432 0.232066 0.465966 0.53042C0.167613 0.828773 0 1.23343 0 1.65536C0 2.0773 0.167613 2.48195 0.465966 2.7803C0.76432 3.07866 1.16897 3.24627 1.59091 3.24627C2.01284 3.24627 2.4175 3.07866 2.71585 2.7803C3.0142 2.48195 3.18182 2.0773 3.18182 1.65536C3.18182 1.23343 3.0142 0.828773 2.71585 0.53042C2.4175 0.232066 2.01284 0.0644531 1.59091 0.0644531ZM0.636364 4.519C0.284455 4.519 0 4.80345 0 5.15536V13.4281C0 13.78 0.284455 14.0645 0.636364 14.0645H2.54545C2.89736 14.0645 3.18182 13.78 3.18182 13.4281V5.15536C3.18182 4.80345 2.89736 4.519 2.54545 4.519H0.636364ZM5.09091 4.519C4.739 4.519 4.45455 4.80345 4.45455 5.15536V13.4281C4.45455 13.78 4.739 14.0645 5.09091 14.0645H7C7.35191 14.0645 7.63636 13.78 7.63636 13.4281V8.65536C7.63636 7.77782 8.34973 7.06445 9.22727 7.06445C10.1048 7.06445 10.8182 7.77782 10.8182 8.65536V13.4281C10.8182 13.78 11.1026 14.0645 11.4545 14.0645H13.3636C13.7155 14.0645 14 13.78 14 13.4281V8.33718C14 6.23145 12.2875 4.519 10.1818 4.519C9.20309 4.519 8.31282 4.89192 7.63636 5.49964V5.15536C7.63636 4.80345 7.35191 4.519 7 4.519H5.09091Z" fill="#333333"/>
</svg>
