<svg width="16" height="17" viewBox="0 0 16 17" fill="none" xmlns="http://www.w3.org/2000/svg">
<path d="M14.9065 3.49945C14.8082 3.39779 14.6569 3.36879 14.5279 3.42812L14.4732 3.45312C14.4269 3.47445 14.3805 3.49579 14.3339 3.51679C14.4695 3.30045 14.5772 3.06912 14.6515 2.82979C14.6929 2.69779 14.6479 2.55345 14.5385 2.46812C14.4292 2.38279 14.2785 2.37379 14.1602 2.44612C13.7799 2.67712 13.4145 2.84345 13.0369 2.95945C12.4669 2.40645 11.6905 2.06445 10.8335 2.06445C9.08452 2.06445 7.66685 3.48212 7.66685 5.23112C7.66685 5.23279 7.66685 5.29879 7.66685 5.39779L7.33385 5.37112C4.09285 4.98779 3.17019 2.80779 3.13185 2.71379C3.06985 2.55712 2.93319 2.44279 2.76819 2.40845C2.60352 2.37345 2.43252 2.42512 2.31319 2.54412C2.24719 2.61045 1.66685 3.22445 1.66685 4.39779C1.66685 5.23379 2.03952 5.91179 2.52185 6.43912C2.29719 6.30212 2.16619 6.19112 2.16285 6.18812C2.00919 6.05412 1.78919 6.02612 1.60652 6.11879C1.42452 6.21179 1.31719 6.40612 1.33552 6.60979C1.34185 6.68012 1.48385 8.01412 3.02485 9.02145L2.74385 9.07245C2.57352 9.10345 2.43119 9.22045 2.36785 9.38179C2.30485 9.54345 2.32952 9.72579 2.43352 9.86445C2.46852 9.91145 3.11952 10.7578 4.53319 11.2445C3.77819 11.4961 2.74085 11.7311 1.50019 11.7311C1.30419 11.7311 1.12585 11.8458 1.04485 12.0245C0.963521 12.2031 0.994521 12.4128 1.12385 12.5601C1.17752 12.6218 2.47852 14.0645 5.83352 14.0645C11.4045 14.0645 14.0002 8.89279 14.0002 5.39779V5.23112C14.0002 5.18179 13.9949 5.13345 13.9929 5.08479C14.6902 4.41079 14.9525 3.90512 14.9652 3.88012C15.0282 3.75345 15.0049 3.60079 14.9065 3.49945Z" fill="#333333"/>
</svg>
