<svg width="42" height="42" viewBox="0 0 42 42" fill="none" xmlns="http://www.w3.org/2000/svg">
<path d="M34.5625 28.4375C34.5625 28.5425 34.545 28.665 34.5275 28.7875L33.215 38.01C33.0225 39.2875 32.0075 40.25 30.695 40.25H18.8125C18.095 40.25 17.43 39.9525 16.9575 39.48L8.3125 30.835L9.695 29.435C10.045 29.085 10.535 28.8575 11.0775 28.8575C11.235 28.8575 11.3575 28.8925 11.4975 28.91L17.5 30.17V11.375C17.5 9.9225 18.6725 8.75 20.125 8.75C21.5775 8.75 22.75 9.9225 22.75 11.375V21.875H24.08C24.4125 21.875 24.7275 21.945 25.025 22.0675L32.97 26.0225C33.8975 26.4075 34.5625 27.3525 34.5625 28.4375ZM35.2275 6.7725C32.7075 3.7975 27.3 1.75 21 1.75C14.7 1.75 9.2925 3.7975 6.7725 6.7725L3.5 3.5V12.25H12.25L8.6275 8.6275C10.3775 6.37 15.1025 4.375 21 4.375C26.8975 4.375 31.6225 6.37 33.3725 8.6275L29.75 12.25H38.5V3.5L35.2275 6.7725V6.7725Z" fill="white"/>
</svg>
