<svg width="40" height="41" viewBox="0 0 40 41" fill="none" xmlns="http://www.w3.org/2000/svg">
<circle cx="20" cy="20.0645" r="19.5" stroke="#E7E7E7"/>
<path d="M19.9518 14.8984C17.8343 14.8984 15.8668 15.0493 14.7441 15.2839C14.7417 15.2845 14.7394 15.2851 14.737 15.2858C13.8912 15.4753 13.0947 16.0812 12.9271 17.0299C12.9269 17.0312 12.9266 17.0326 12.9264 17.0339C12.7976 17.7985 12.666 18.7953 12.666 20.2318C12.666 21.6655 12.7981 22.6359 12.9609 23.4408C13.1327 24.3615 13.9108 24.9857 14.7695 25.1777C14.7736 25.1789 14.7778 25.18 14.7819 25.181C15.9536 25.4119 17.8655 25.5651 19.9831 25.5651C22.1006 25.5651 24.0136 25.4119 25.1855 25.181C25.1897 25.18 25.1938 25.1789 25.1979 25.1777C26.0437 24.9882 26.8401 24.3824 27.0078 23.4336C27.0083 23.4312 27.0087 23.4288 27.0091 23.4264C27.1359 22.6462 27.3003 21.6503 27.3327 20.2116C27.3327 20.2079 27.3327 20.2042 27.3327 20.2005C27.3327 18.761 27.1679 17.758 27.0072 16.9635C26.8367 16.0408 26.0578 15.4149 25.1979 15.2227C25.1848 15.2197 25.1715 15.2173 25.1582 15.2155C24.0148 15.0548 22.0697 14.8984 19.9518 14.8984ZM18.7181 17.7324C18.8416 17.7299 18.9692 17.7591 19.0892 17.8268L21.957 19.4473C22.4407 19.7206 22.4407 20.4103 21.957 20.6836L19.0892 22.304C18.6095 22.5747 18.0117 22.2319 18.0117 21.6855V18.4447C18.0117 18.0349 18.3477 17.7401 18.7181 17.7324Z" fill="#333333"/>
</svg>
