<svg width="24" height="106" viewBox="0 0 24 106" fill="none" xmlns="http://www.w3.org/2000/svg">
<path d="M12 84.25C6.62391 84.25 2.25 88.6239 2.25 94C2.25 99.3761 6.62391 103.75 12 103.75C17.3761 103.75 21.75 99.3761 21.75 94C21.75 88.6239 17.3761 84.25 12 84.25ZM15.5048 94.4359L10.14 97.6769C10.0631 97.7229 9.97533 97.7477 9.8857 97.7487C9.79606 97.7496 9.70778 97.7267 9.62992 97.6823C9.55205 97.6379 9.48741 97.5736 9.44261 97.4959C9.39781 97.4183 9.37448 97.3301 9.375 97.2405V90.7595C9.37448 90.6699 9.39781 90.5817 9.44261 90.5041C9.48741 90.4264 9.55205 90.3621 9.62992 90.3177C9.70778 90.2733 9.79606 90.2504 9.8857 90.2513C9.97533 90.2523 10.0631 90.2771 10.14 90.3231L15.5048 93.5641C15.5796 93.6096 15.6414 93.6737 15.6843 93.75C15.7272 93.8263 15.7497 93.9124 15.7497 94C15.7497 94.0876 15.7272 94.1737 15.6843 94.25C15.6414 94.3263 15.5796 94.3904 15.5048 94.4359V94.4359Z" fill="white"/>
<path d="M12 2.25C6.62391 2.25 2.25 6.62391 2.25 12C2.25 17.3761 6.62391 21.75 12 21.75C17.3761 21.75 21.75 17.3761 21.75 12C21.75 6.62391 17.3761 2.25 12 2.25ZM15.5048 12.4359L10.14 15.6769C10.0631 15.7229 9.97533 15.7477 9.8857 15.7487C9.79606 15.7496 9.70778 15.7267 9.62992 15.6823C9.55205 15.6379 9.48741 15.5736 9.44261 15.4959C9.39781 15.4183 9.37448 15.3301 9.375 15.2405V8.75953C9.37448 8.66989 9.39781 8.58173 9.44261 8.50408C9.48741 8.42643 9.55205 8.3621 9.62992 8.31768C9.70778 8.27326 9.79606 8.25036 9.8857 8.25131C9.97533 8.25227 10.0631 8.27705 10.14 8.32312L15.5048 11.5641C15.5796 11.6096 15.6414 11.6737 15.6843 11.75C15.7272 11.8263 15.7497 11.9124 15.7497 12C15.7497 12.0876 15.7272 12.1737 15.6843 12.25C15.6414 12.3263 15.5796 12.3904 15.5048 12.4359V12.4359Z" fill="#C10606"/>
</svg>
