<svg width="40" height="41" viewBox="0 0 40 41" fill="none" xmlns="http://www.w3.org/2000/svg">
<circle cx="20" cy="20.0645" r="19.5" stroke="#E7E7E7"/>
<g clip-path="url(#clip0_290_1601)">
<path d="M25.9949 24.1332C25.9591 23.7575 25.7674 23.419 25.4829 23.1853C25.0931 22.8664 24.4441 22.2112 24.343 21.307C24.1955 20.0009 24.5473 15.3248 20.8557 14.7787H20.8452C20.8199 14.6106 20.8683 14.4467 20.8789 14.4096V14.4053H20.881C20.9168 14.2982 20.9379 14.1847 20.9379 14.0667C20.9379 13.5141 20.5059 13.0664 19.9728 13.0664C19.4397 13.0664 19.0078 13.5141 19.0078 14.0667C19.0078 14.1912 19.0288 14.3092 19.0689 14.4205C19.0836 14.4708 19.1257 14.628 19.1005 14.7875C15.4552 15.3619 15.8028 20.0053 15.6553 21.307C15.5542 22.2112 14.9052 22.8664 14.5154 23.1853C14.2309 23.419 14.0371 23.7575 14.0034 24.1332C13.9128 25.1182 15.0106 25.0112 15.0106 25.0112H24.9877C24.9877 25.0112 26.0855 25.116 25.9949 24.1332Z" fill="#C10606"/>
<path d="M20.0012 27.0651C20.8188 27.0651 21.4973 26.447 21.6237 25.6367H18.3809C18.5073 26.447 19.1858 27.0651 20.0033 27.0651H20.0012Z" fill="#C10606"/>
</g>
<defs>
<clipPath id="clip0_290_1601">
<rect width="12" height="14" fill="white" transform="translate(14 13.0645)"/>
</clipPath>
</defs>
</svg>
